<mxfile host="app.diagrams.net" agent="Mozilla/5.0 (Windows NT 10.0; Win64; x64) AppleWebKit/537.36 (KHTML, like Gecko) Chrome/128.0.0.0 Safari/537.36" border="50" scale="3" compressed="false" locked="false" version="24.7.14">
  <diagram name="Blank" id="YmL12bMKpDGza6XwsDPr">
    <mxGraphModel dx="2415" dy="803" grid="0" gridSize="10" guides="1" tooltips="1" connect="1" arrows="1" fold="1" page="0" pageScale="1" pageWidth="827" pageHeight="1169" background="none" math="1" shadow="0">
      <root>
        <mxCell id="X5NqExCQtvZxIxQ7pmgY-0" />
        <mxCell id="1" parent="X5NqExCQtvZxIxQ7pmgY-0" />
        <mxCell id="e_rh_0O6W5ZMYadc6qjm-29" value="" style="shape=image;verticalLabelPosition=bottom;labelBackgroundColor=default;verticalAlign=top;aspect=fixed;imageAspect=0;image=data:image/png,iVBORw0KGgoAAAANSUhEUgAAAdUAAALACAIAAABKKH8VAAAgAElEQVR4Aey9j29V5Z7vf/8Fh5sWG2OMpCHckHBjIGHs2IsBM5zGGUdOwIsD5xpPgCNhpsrJYY7IOC2IcBRGKARsUoqn5SDV7cHODCi0XvxaPMA5IB4DSk9AKaTicOgIyA/7y37vWq+1n/3ZP/prd+/VvenbNMu1V9ePZ72f1Q+v/V6f5/P8tz79JwWkgBSQAqOhwH8bjYvqmlJACkgBKdCn+KuHQApIASkwOgoo/o6O7rqqFJACUkDxV8+AFJACUmB0FFD8HR3ddVUpIAWkgOKvngEpIAWkwOgooPg7OrrrqlJACkgBxV89A1JACkiB0VFA8Xd0dNdVpYAUkAKKv3oGpIAUkAKjo4Di7+jorqtKASkgBRR/9QxIASkgBUZHAcXf0dFdV5UCUkAKKP7qGZACUkAKjI4Cir+jo7uuKgWkgBRQ/NUzIAWkgBQYHQUUf0dHd11VCkgBKaD4q2dACkgBKTA6Cij+jo7uuqoUkAJSQPFXz4AUkAJSYHQUUPwdHd11VSkgBaSA4q+eASkgBaTA6Cig+Ds6uuuqUkAKSAHFXz0DUkAKSIHRUUDxd3R011WlgBSQAoq/egakgBSQAqOjgOLv6Oiuq0oBKSAFFH/1DEgBKSAFRkcBxd/R0V1XlQJSQAoo/uoZkAJSQAqMjgKKv6Oju64qBaSAFFD81TMgBaSAFBgdBRR/R0d3XVUKSAEpoPibsWfgh97ejJ1LJ5ICUmAMKKD4OwY6WbcoBaRATiqg+JuT3aJGSQEpMAYUUPwdA52sW5QCUiAnFVD8zcluSadRvX197id2/NWu3qtdvaeudZ661tnUfj1y0ftpavd+vrzV/eWt7s6e3s6eBOea88ROojUpIAWyoYDibzZUHZVzuuAbF0wVf0elM3RRKTAUBRR/h6JSGPv09Pb+4P+kd7HosV4UJuaCuosOX1h0+MKct0/OeftkWd3RWTuPzNp5pGzPibI9J57Yd+aJfWeWf9y2/OO2Ix23j3Tc7u7r607v8jpKCkiB4Sug+Dt8zbJ5RNpJbIq/2ewWnVsKZEUBxd+syJr2SW/eutXZ1dnZ1dnT3U1ItctBTwvGgrRldUfL6o6WbGou2dQ8fcOB6RsOTFu/nx8+lm49VLr1EET848ZTP248VfnJ15WffH3p+55L3/f8MOjFtIMUkAIjU0Dxd2T6Zedoxd/s6KqzSoHcUkDxN7f6I2VrYlDc2+ts4qjh4B3R3deH2wvGPlzd8nB1C5A7paJxSkXj5JWRySsjk1Y0TFy+e+Ly3XzkVxAxLAwyYxkf6bidsjHaKAWkQKYUUPzNlJLZPU9gSij+ZldmnV0KhKqA4m+ocmfwYkRksnffaL1ChgPkC9ICuROW1E5YUnvfYu+naOHr9zxVfc9T1fc+XXPv0zX8atKKhkkrGpIp+Mnms7jJGWyzTiUFpIBVQPHXqpFP64q/+dRbaqsUSKWA4m8qVfJh2+X/vHz5Py+/0XoF+IV8p65unLq6sbh8V3H5LiC3YO7mgrmbx82tGje3quDx14Iff+P4BdvHL9jObsXL6ouX1eMIOy/YGcG+F+xlFlvTOR9EUhulQE4roPibse7pCbf+pOJvxnpOJ5ICo6SA4u8oCT/iy3547LMPj32G7Vu69VAy+YK3lnwLH9to+Rc0xhG2XjCnKt16iGFyZBMzpu6Hvj7lBY+463QCKRAooPibr4+C4m++9pzaLQWiCij+RpXIt/9XtJyraDmHVztt/X7SGLBxsXQL528rnL8NyC18bKP38+irrEDBoHHRwteLFr4O/5IdPGXV3imr9k5bvx9PGQomvzjfRFJ7pUBOK6D4m9PdM0DjFH8HEEe/kgJ5oYDib150U4pGMtSN8g5TVzeCrmQ+ALP4v3H8CwVHl9b/BZyBaPh36upGlwhRVncUF/hWV++trt5RdIGVgJHiUdCmvFVA8Tdfu27Mxt987TC1WwokKaD4myRJnmxQ/M2TjlIzpUC/Cij+9itNjv/ClpecUtEYvH/zR17gP/AWjvQy+y6uYO5mPtrMM4wLW5fngZf34T9QoPLJ5rNPNp9lyqKQlcFz6PFrX4R8aV1OCmRVAcXfrMqbxZOPtfibRSl1aikwSgoo/o6S8CO+LFjq3r/x0iz5/VvRvKqieVUALwlnbmkpmAN5icf4i+kbDsC/ZKFhdzCP54jbPqQTBNjb3X3z1q2bt24N6RjtJAXySgHF37zqLtPYMRV/zX1rVQrcOQoo/uZHX5LyxfyYm0+2bz7ZDpaCqKVbD1E6hzQy/F8GVsRGXjz6qjf+wv74iWi4wDb/DBfYG3/sz2BkJyjKXkVK7N2e7u6ebk0Bmh/PpFo5cgUUf0euYRhnuOPjbxgi6hpSIMcUUPzNsQ7ppznEXyCRWTLhX+D04eoW8h/IeQg8X8ZZzFhTOGNNQWllQWllob/uPo6fuXb8zLUAMoM1AGdONX3DgWDWen+yetab2q83tV/vp43aLAWkwPAUUPwdnl6jtbfi72gpr+tKgewpoPibPW0zeWYbf/F/IV9XfzLI84V5Z68vnL2+eMG24gXbQFogd9xDFRaErfOLWUxdHtanrNrLyVmS/5A2/2rccCafBp3rTlFA8Tc/ejLf429+qKxWSoFwFVD8DVfvdK+WHH8pC8ly2vr91vMFbFnCv0F1ngXb2I2PdoJOYJnfsiwu30X+A+T7xL4zT+w7M6z8BzFvur2t48aKAoq/+dHT+Rh/80NZtVIKjJ4Cir+jp/1wrkz8Jf+XOTfBUhB10ooGTFvSeFm3RAzeTt9wAOYld6Jo9jrvhwFyxjJ2ScQMruNC1H/oj39/CHfuu+Eop32lQO4qoPibu31jW5bj8dc2VetSQAoMUQHF3yEKNcq7EX9pBFMBYcgy/g2Td8KSWjxfwJZUB5Zgb8mmZuo84Bpz1F0lz99V8nxwiD9BPTsXl++iEAQ7Mxf9qNQ/G2XpdXkpkDUFFH+zJm1GT6z4m1E5dTIpkBMKKP7mRDcM2gic3wOftB/4pH3LmStbzlzBkIV/Jy7ffd/i2vsW1wbTa/qj3SBfnF8M35JNzbAtrnHgAvv+bzAWzq8OwSC6SSsapm84MH3DAcu/pB7TDPtPwqDt1w5SQAokK6D4m6xJLm7Jzfibi0qpTVIgfxRQ/M2Pvmo5danl1CXc22nr909bvx9DFv4tLt9FMd8gpcFPbICFMXkB3qmrG+1HRtAFKRNkQfjD51z+Lxdi/BuXozQEvnDb1x35oZ1aKQVyVQHF31ztmfh2Kf7G66FPUuBOUEDxN/d7sbevr3fTW0c3vXUUVsXDJf8BD/f+pXVMJg//Qr52egsyeYsXbMPnBWBhZ9xe7GOmxuBUE5bUPvDyvgde3kf+L0uqDJcsrS9ZWr+n6UTua6cWSoFcVkDxN5d7h7Yp/uZ+H6mFUiAdBRR/01Et/GP2NJ3Y03QCZ5ap3iz/FpfvsqPdAFiW5D9wyMTlu/F/IWjsXXaAgllSC/j+pXXsYMe/UTiCk/zkV03h66ArSoE7SQHF3/zoTcXf/OgntVIKDEcBxd/hqDU6+3r+A+/fmMACCCX/lxyGySsjQCsUzDouMFsg1qKFrz+4uObBxTV8JJmBnR3z3r+0jt9OXL47uf4DsMyy5dSl0dFDV5UCd4oCir+535OKv7nfR2qhFEhHAcXfdFQL/5jP2y5/3nYZMiULmLRc8h+mrm5kI2kM1gumIgTGbsHjrxX6dc7YjUM4J/xLfoVL8rX8y+U4pOzFprIXm27c+C58HXRFKXAnKaD4mx+9qfibH/2kVkqB4Sig+DsctUZjX8osXL7ScflKx9ytH83d+lFQlqzuaFndUfh38soIG+FT+DfICF74etHC16HgwkdfhX/ZAdplCSDDwqT9lm49ZMe/MYKOihCLIscXRY53dnWOhh66phS4cxRQ/M31vlT8zfUeUvukQLoKKP6mq1xYx0XLjHlv4Sr2nK7Yc5rsXcxZ+Hfi8t2wKnm+jHyz9R8C1C3fBSDj8AaTwvkbg+kz/HXGxZVsag5Ae8+Jsj0nuBz8u/dI+94j7X19vWFpoOtIgTtTAcXfXO/X3I6/vdHm5bqMap8UyEEFFH9zsFPimhQNcB7/Xrl288q1m6AocAr/urkqoGCcX/gXWAZ17326JkjgXVZfvKweWOY8Bf7MF+zGOadvOMCvyHxgHQCnGKbPv0LguM7SBykwLAUUf4cl1yjsrPg7CqLrklIgFAUUf0ORecQXSY7Cx7769thX35KWUFy+C5jFnw3mPzbTG8fVRXtso02NgIjJiACWXbFgmPeZ/aef2X/6m2ud31zr7OzyfiDfaJNGfG86gRQYqwoo/uZHz0eDXcyFUPzNj55TK6VA/woo/vavTS7+xou/9gc4LS7fRUoD1jDD27B0IV/K/trZMYpmr8MgZuQb+b9ANP7vlIpG3OSKlnMVLefsRaP/GOSiQGqTFMgjBRR/86iz+mwQZF3xN7/6T62VAlYBxV+rRn6teyDMhMTA76QVDRAr2b6ArR0LB/AWRv1fO+aNQzB8yf+durqRlTdar7zResWGfvFvfj0oam3OKqD4m7NdM2jDFH8HlUg7SIGcVkDxN6e7p5/GeZG3p7u7p7sbOC3Z1MzMbPAvOGzLm1kv2Dm/8C87czjpE278G4kQkYvXIxev/9Db6/309f3QT5u0WQpIgeEqoPg7XMVyYX/F31zoBbVBCoxUAcXfkSoY/vFRCPWiMPzrCqGBrlAwybxUPiPzYdxDFQWllQWllUE6xLyqonlV8C/kS+YD2FtWd5SZ35rarze1X8f/7ent7enVmLfw+1xXvDMVUPzNv35V/M2/PlOLpUAqBRR/U6mSP9sirZcjrZdn7TzCdMgQa5lfsQwWpqQDWRAu84GPVPsFlmFeDudUTzaf5TyWf6OhP38EUkulQA4roPibw50zhKYp/g5BJO0iBXJUAcXfHO2YITYLOC3Z1MxEyAkA+2TzWTtNHERcuvWQ9Xkd7TKh8pPNZ9niXOAjHbePdNwm3UL8O8R+0W5SYCgKKP4ORaXc3UfxN3f7Ri2TAoMpoPg7mEK5/Xvib+nWQ5RuoP4DS2gXjIWC57x9EkuXj4FZ7M8jBz7DxSynbzjAbvAv+Q/i39x+HNS6PFNA8TfPOiyhuYq/CYLooxTIIwUUf/Oos1I0FTh9uLqFNF5yfm3+L4UdqIh279M15DywkdQIWzgY8qUKxLT1++HfU9c6T13rlP+bQn1tkgIjU0Dxd2T6jfbRir+j3QO6vhRIXwHF3/S1y4UjFX9zoRfUBimQngKKv+nplgtHeeOP3SwYOA/YCxgILNnCgIvxM9feVfL8XSXP2/EXHMjLOkYhuxHJvKDDf9D7t1zocrXhDlNA8Td/O1TxN3/7Ti2XAp4Cir/5/Rycvvjd6Yvfle05Ae1SbccOLLa12Mf/6JXCGWsKZ6xhgs7kmuu8kYN/S7ceYiDG+Y4b5ztuIJPyz/L7cVHrc0wBxd8c65BhNkfxd5iCaXcpkEMKKP7mUGcMqyndfX3dfX2nL1w7feHanLdPYt2SZ1Y4f1vh/G0Yu0H9nYWvFy18veDx15iCKJl/SVkDnDnw4eoW+PfS9z2Xvu+hbeLfYfWRdpYCAyug+DuwPrn7W8Xf3O0btUwKDE0Bxd+h6ZSLe3nv3xj/VlZ3lAQG5hwaN7dq3NwqWBj+ZS7Ogrmb+eHj/Uvr7l9ah3HMbjZ9IqH+OvMPRWfhzEU51CYpkHcKKP7mXZe5Biv+Oim0IgXyUgHF3/zrtqtdvVe7gpnnKa/j6uZg3ZLeC+qS5MAWb+bN2eu9n8c2Fj62kWQJZt60iRNYyV6lHr80D0smurdecP4JpxZLgRxTQPE3xzpkCM1R/B2CSNpFCuSBAoq/udtJ0WQDz2eglQxFe2b/6Wf2n4ZS3VA3WzqH9IbCR18tfPRVJpmHf938m3c/su7uR9bh9gYJEv5cnKy7wpVc4oGX9z3w8j7WuTSmsxVOk9JbNbQuBYaogOLvEIUahd0Uf0dBdF1SCoSogOJviGIP81LE36s3O6/e7MR+hUxhXpveW7ysHj4ljTfIAvb5N3B+fbxl8vmC0kpcYPgXWCYjwmX+PlzdUrr1EB9ZYhNzfli7ouVcRcu5L291f3mre5h3pt2lgBTwFFD8zd3nQPE3d/tGLZMCmVBA8TcTKmbnHNSWXBQ5vihyHPAEQgFSqjSQ8DthSS0boWA2Fjz+WsHjrxXNXuelPfgJD4Uz1ox7qGLcQxVYw+Q8sBvrkDV4O239fs5jK7tTrJ3dmOWIGu1N7dc7e3o7ewKfOuqcZEcXnVUK3CkKKP7mbk8q/uZu36hlUiATCij+ZkLFtM5hIdGOLnPpZbi9pB8AntaQJVeB5f1L6zBz2RlidTm/RbO9bIe7H1lXOGMNFnAcFPtozOFQNmA7cfnu/vgXDIeCuWLp1kNDsYPtLaelmQ6SAneUAoq/o9adNhgp/o5aN+jCUmD0FFD8HT3tzZVvdfXe6goms8Dwnb7hQDLzWv5l3VGwTeblV1i6pDqMn7l2/My1Lv8B/mXJMDnOg33MdYvLd1nnl3Na/5d1WPiBl/fBzgyWi7RejrRevvTt7Uvf3rb/zJg71qoUkALKf8iNZ0DxNzf6Qa2QAqEqIP4NVW57sRu3u2/c7mYsGePKZu08MmvnEdIPSrcesim9mK0sA/BctdetTF4ZgVXtEiIm8wH/1/FvMAuGnxpB/i8Hcn5H2ZZ2bQNAXZqHSf1wdYstFuHVjthzgpsiczk6iZwVQOtSYKwroPg7ak+A4u+oSa8LS4HcUEDxN9R+wAwlsWz5x23LP25jjonk5Y8bT7GRSYhJs4Ur40jTL1E2a+cRNsLOLoFh4vLdZEGQ8Fs4ez35v9jBoDGD5cBbDgfDk68S2+LjLU2ieQMsuYtFhy8sOnzhjdYrb7ReudoVpAmHKr0uJgVyTwHF31D7RPFX8TfUB04Xy20FFH/D65+rXb0A4JPNZ59sPhsgrQ+weKk2x2Da+v1YqyyD8W++5+v8WbcyZdVeAJbzgLEsORB718vnXbDN+1lWX7ysnsPtIYCzuxY7WE/Z2sRckUMerm5hBcuYAy1Tw85g8vKP22QHh/fY6Uo5rIDib3ido/ir+Bve06Yr5YMCir/Z7SUMh2NffXvsq29d0V5yZlnaXAKbUVCyqRl+JDOXZAaWlPRlabdPWFKLmctGRq8BpPbMpVsPWc6FVSFie7b7Ftfaj+xglzTMEbFLhHD0zVW4C4vSk1dG2IdvA4PNqSGzOLuPqM4+igoo/mZXfMVfxd/sPmE6ez4roPibrd6jMC5VEYBc4PS+xbVMPAw58itr9UKsrqRDgJzlu+DZxKXv5Maw1Oxm+dQaslNXN1qXlt1YJp7cP5vdwZ7T+sIJxSLA7RSU7Z/QYTWtchXUmtqvd/f1qZZwtp5InTf3FFD8zVafKP4q/mbr2dJ57xQFFH8z35MMaeNdE4gH+VKQ4Z6nqgFAKJh1zFx2YEtC+YUE2HRMCrG6j6xwUbt0jjNuAEso2LJwf1eZuHy3/RVn5kB3KjbSAEe4KVecf81vOTMJEgyWowJc5jtGZ5QCOaaA4m/mO0TxN2XYdRsVfzP/zOmM+amA4m+G+62p/TqGJmAYFCGbv61w/jYqjbnluLlV4+ZW8ZEiDEQoQNKBKh+BROvPsnOC82tBmEPYYtfdPmxM+Sv2sZfjQvZsCRSMkc2SXxFn7fxy3DJzzY1fsJ1f2QF4DPCDgu2EGhnuJJ1OCuSGAoq/Ge4Hxd9p6/cr/mb4qdLp7lAFFH8z3LFz3j5JMgP0B94G068xCVt06UC4YO5m6BJ4dHNYBPiZkOGwrN6Sr12PsbA5hB0GXcYdSxLFsnoaMP3ZhunPNsDjM597a+Zzb4HM/NYRMTGX3XjzhkHMNwDKUNhbduuW/ZEOCiY7+Ide5f9m+BHV6XJHAcXfDPeF4u/U1Y2Kvxl+qnS6O1QBxd9MdiyVw8DDoPAYtPvoq4WPvupmnaAaGQBo3c+AKw29xmHpsnqbMpGAtOA2G+06W1zqBd6r++iSMRLONmGJl6T86zff+fWb7zR/cKj5g0NNBw82HTz47m/r3v1t3Utbdry0ZcdPftX0k181JbjJ1hS2XjBX5JbdtwGmXmYjbebwWKG1uqOnrnVmsod0LimQSwoo/mayNxR/FX8z+TzpXHe6Aoq/mezhOOf38dcKHn8N1HXky4rlX5eZO6Wi0aYieO6qAeFkPmVLQmaxBVtQl4JnLuUA2HQf3Qq07j6OX7D9nqeqt++o376j/v3/aHj/Pxr2/Kba/dRUv1pT/Soff1bV8rOqFpcgbOOvHQVHa2P8638hAITZiAvMLSMj/5hVtJyzk5Nmsrd0Likw2goo/mayBxR/FX8z+TzpXHe6Aoq/mexh3v4X+tm+wJ0l3/Ez1zIPG9NPQHxAYiL5xsNvcTTnoT8KnrCk1nq+UDDnB2lpkks3BjltAjKJDSxfqP2IH9zeZP6FfDesr9ywvvLd30be/W1k8sqIS4SYtKLBRmFKnfHbYBqOqBUefA/wvygA4NwgMjoX+HzHjfMdN/r6ev2fTPaXziUFRlcBxd9M6q/4yz8kir+ZfKp0rjtXAcXfTPYt0SdwOU3OA/MNj5+5lhUmYcPrhH/Bw4SE32Taxe1N3j7AFlgYCnb8C/myhHkPtxw+3HK49fNPWz//9Hxr8HP6j384/cc/nDx26OSxQ3adLVDwb35T/5vf1E9d3ZjMv/xrhCfDegD+zLscXQZfFOZVFc2rguJJHAacSzY1R1ovR1ovZ7KfdC4pkBsKKP5msh8Ufy3/Kv5m8tnSue5EBRR/M9mrACxWJs4vxBfMNzxjTUFpZUFp5V0lz99V8jzjyvrjX4e0aTAvx8KSNiPC41/fbLX+76a3jm566+j5s194P1HyPd/6KcDr+BfmZdly6N9bDv37zpotO2u2OP5NGA5HIJ60ooGxGMRibrygtNLa4jYLgpvFvgCcH3h5H+Ugenp7ezQWLpNPq841+goo/mayDxR/rQtBCFb8zeQTpnPdWQoo/mayP7F0+/N/C0orcX5ZgoQMErPOL/R6/9K6gck3OeHBou49T1Xj+ab0f20LLf/+7qODv/voIHibcvnBwXc/OPguGRHwb0NDpKEhMnV1Y5CtbCbgeHBxzYOLa4jCln+h4LtKnrcUTJO4KXvIAy/ve2b/6Wf2n1Y5tEw+qTpXbiig+Juxfpi8MqL4G/xD4kdhxd+MPVs60R2qgOJvxjq2uHwX6EqyrfV/ne3LCnYw7/fxOglbg5Z3SCBc+9EOXbP2rk11cP4vlivpt6T64vx+evx3nx7/HSbvACBs+Rf/d/qzDdyCTeRAjfnPvjL/2VdS8q8D4btKnqcxNgvYWRmLIscXRY5fvdl59WZnT3e39+N7wSyjo+My1o86kRQITQHF34xJrfhbXL4rG/E3Yz2kE0mBHFNA8TdjHXLf4mAQmnVXoWCw1y3BT/gXrxPjAmBked/iWou3rNshbQAvwJiQ2GtZ2J7Em4MjKf/B8i/kCwXjBScsMYXhX6pAUCPN8158z2Hmz9+Z+fN3Hll18JFVB2FelryFK53zi9I5v7DYm7COdNSsYDlhSW3GekgnkgI5poDib2Y6hHdlvD5S/FX8zcxTpbPc6Qoo/mamh8FMwDM5/jLsraC0khXIDv4NvrD7pc4gX0eslnbxlO35E43duZu5bsHczfZXHOLO6fZxK/CvHd4G89qE35PHDkG+5D+8s6f2nT218C/5D9OfbaDx3I6dMoNYXPZik/v5X+UNvJpjiRqAvM0FBpbFv5l5QHWWnFRA8TcD3TJx+W7FX8XfDDxJOsUYU0Dxd6QdDvEp/ir+jvRJ0vFjTwHF3xH1+aLIceIvX/mDL/UUVIzWlymavQ7boTA6/piv5/b9G8GLpQvlnM2aCc40iK3wPu3x14KUMn+6o+SXbJykaOHrtoU2/8y6DSlHXtg3b1Te2bJ5w5bNG3j/VrK03o4WQRM7jIJikgwpLpq9Ds+hZGl9ydJ6CgDxmo7Xd6xzkskrIyPqoWEerGy2YQqm3UekgOLviORT/L3D4u+IngYdLAWGqYDi7zAFi999UeQ4lBfHlT6E2sG1jn9Zge/s+zdLvrxqSyBci7dwa7CFiXwefTVuByjYfyNn8Xn8gu3J7WR8BPxLYpl91cYLtw8OvkstdpZUXmdJ/J2wJMiWsy4EQ0u4WfiXW3bfA4KyRH5roX64mGw8WHjmL/4tXvJQP3V2RUd8dHeDxgLkUDvgTr+Y4m/6PdzZ06v4e2fHXx4OBt0p/qb/p6Ij+1FA8bcfYYawubuv75n9p6E8LNdgEK1xfu2EQ+NnrgWKqTmZ7P+SPuz4Nw5pTTV3S9ZuPQ6H+3GBxy/Yzm5Ba/3dQM7G95oa32uCf0kvc8DLRzzfF375nPuh/g7pa9Crm83eWbeTV0YoMGT5t2j2OsjXNb5o9roY70cT6cicm1LROISuCGOXa9euX7t2/eatWzdv3bp9+/swLqlr3OkKKP6m38OKvztrtoyd+NvX16f4m/5fi45MpYDibypVhrTNmw6youVc4P8m5TwAd67yeuGMNd78Qz5ykgYAEtr6O/CvS6VgZwuJg64H1nDS7O7OBQYzA1j2G8M5SULABQZ1GV5RU/0qPq/D3hd++Rxb3nznvTffeY8xFMxXf89T1ZQQgn+ZRgj+nfP2yTlvn+SWi+ZVIYulYAvmNDLX+HdID4V2kgLDUUDxdzhqxe2r+Kv4G/dA6IMUGK4Cir/DVSxu/80n22E9HFVY0nq+NvOhaPY60gMCGNxzomzPCZvrmuj/9uP5WmwcgIhtmgREmbL+pD3DS1t2vLRlx97G9/c2vr/nN9Vk+NpsBzxf3rmBzI5VsYC5QZv5S+UdbvmJfWee2Hdm4vLdXDT5RgIK9i1g+HfSioY4xfVBCtxBCij+jqgzFX9DiL/LP25b/hQJNb0AACAASURBVHGb5r8Y0ZOqg3NSAcXfNLuFbKTNJ9upu2i9WrAO8qXmJLh3z1PVZD5ggz7ZfPbJ5rNswQUGHuG+onlVnNOeza5bsma7y6+wSJvoq/bjU1tmZ1ja9h31cK5d/uRXTT/5VROeL1cJGrlgOzqw5HZs5gM3++PGUz9uPDV5ZYQ7TaZgy+zoUFy+q6LlXEXLOcXfNJ9UHZbDCij+ptk5ir+Kv2k+OjpMCkQVUPyNKpHW/zefbKfuAf4vFGnJN6i57lOnV6R8wbbiBdvIfwAJYWFQESsZF/i+xbXszNks+bo67skrDoQTWNhRMCsWkC2E2qvc/ci6wtnrC2evD9D4R6+M/9Er9kCba3HPU9UwL7eAqW2dX8u/hY9tDPh3XpWH+TPWFM5YE3dmPzED/p24fLfm30zr2dRBeaCA4u+IOknxlyis+Duix0gHj1UFFH9H1PMVLecG5l8QMiBZH+sKH9tok2HL/CwIxsKBjViobv4hC4aWT5nEHgQe91BFMgvbA8He2NJkVlhmt+TOOmnLDqs5JzGXN29uxswg57eicUpFI+QL2uP52vyH4gXbaK1tIZew53f+r/h3RM+oDs5hBRR/R9Q5ir+KvyN6gHTw2FZA8XdE/V/Rco5iXaCl5VP40eYVjJ+5FhAGDFniBQOMuMBuRBwZtQFmmpoSjkbHz1zrsJeJLN1HN9dRQJQ+ehfElwkGY9khueXuKpZSA/Kl6LCfpYtbXVy+y45246aA+lk7j8zaecTy7/RnG2hnMm4n86/zf5ltfkS9pYOlQI4poPg7og5R/FX8HdEDpIPHtgKKv2n3vzf+OGH8haVI6886luS9P2AIEkK+OL82heD+pXXwL6UbkvMW7LWcV5vMqhwYDM+bVwVNx4zgqCUN2AbbKR/x6Kv9ni1aoqxg7mbuqHhZPWPepvj+r81/gH+tCzx5ZcT6v04cl7NBY/B/J61oIP9X/Jv2k6oDc1YBxd+0u0bx15txWfE37QdIB0oBxd8RPQOR1stAK6+hAEYLdKzjArt5z7BH4V9YOMH5LS7fde/TNUEhYN9stV6txVLWHc/CuUAu65Z/Y/5vlHC90zoEfmwjdxEc7iDXuL32V/CpK/tgM3+5HW4zOQuieFk9/Is49nZoDM3g/JNXRt5ovfJG65W+Pu8fvBH1lg6WAjmmgOLviDpE8Vfxd0QPkA4e2woo/qbd/x6OfXOtkwIOwJqlYLDO5j94W/wRX5Z/WccFJoUAI3XCklrO2Z9jG5CvI1mDsYGZ634VdXILH9toYdOuW0x2xYJdJWKHvWxJIN8JS2qd/2udX9Ae/gX2cYFd/q/l36AB8TkVxeW7pq3ff+yrb4999W3a/aQDpUDOKqD4m3bXKP5WuwmHFH/Tfox04FhWQPE3zd6n/k5PrzcFp5uFni/j1quFf53/i6Vr+Rd8xjAFHuHf4mX1wdnmbyucv81SsOXW9NatQ23PYCHUUbD1lC3/knnG+7dJKxrwwbkRcJ7btMkejn9dwoar/GAvzY0/8PK+B17eN+ftk5e+77n0fU/U/5ULnOYTq8NyUAHF3zQ7RfFX8TfNR0eHSYGoAoq/USWG+X/iLynAm0+2g67Yu5Z/LWkWPvoqzqnlX5v/i//rsoBBS+sCB2m8ZiycpVc3rzAXTWZMt4MdfsZu9jwWRT3uJv/BZEHQJJd5hvlA5i/8C9Rb/oV8WRYtfN22MFj3/Wv4Gv7lhBUt52519d7q6o0KPsx+0u5SIIcVUPxNs3Oi4cAbgqH4O2lFg+Jvmk+SDhvDCij+ptn5P/T1/eAdGsRfTFvs3WT+hS4LH30VsrNDwpLzf+HfSSsaLP8ChpCpZdWEdVgSvLWQy/ai2eugXbuDXXft9G7hsY2WfC0Uw78J/gPfAOBflvAv+Q/M/Ab/3vNUdXAhv/Kva1vR7HXY3JwfHRZFjsf7v2n2lw6TAjmogOJvmp2i+Kv4m+ajo8OkQFQBxd+oEsP+v/ci/lZXkP8A/ybn/1p3tfCxjcQsi4Twr50FLoF/7Sg4S7sWG+9+ZB0fk/GWLW5nuwMl06hTwdLt5pFyNKHYpl7YXAhY3uU/kK5g0zls/i/8y3LCktr++JeLWv6dtfOI8n+H/WzqgDxRQPE37Y5S/I3l/05a0aD4m/aTpAPHrAKKvyPq+mNffQvl9TcLsiXKgsdfYzebDMDhNgsigX+BQev82nMCkmyx5YCdq2sBfPzMtXy0tdncnoklg6OlIeDfOAr2R6nRMPh38soI/i/8y+0k8y+zwE1a0YBFTrNtC9nOtdCqdOsh3nCq/tmInlQdnJMKKP6OqFsUfxV/R/QA6eCxrYDib9r97/kPm0+2Q3yEIZv5ANbFseq8KoqEgYGYoUAiJwEh4d+Jy3czs0bRwteLFr5u+dcCozs/G4FZOxeGQ2Pglx2s52tZ2J7ZWcB4vjYBI2iM3zAodfLKiM0/g39J87Bm96LDFxYdvjBl1V7LvzQpYGG/ZgX8e//SuvuX1pVsamb+t6tdvVe7VP8s7cdVB+aiAoq/afeK4q/3D4Pib9oPkA6UAoq/aT4DnV2dnV2diyLHQVeSARLcWMeewfYF24OcVh8DgUHLv6TNsk9x+S6YmjODhPb8rLMsnLHG2rjJ664lyb+ysAz/umoVnNzyL+vwLw0j/nrjL1btnbJqr838tf4vyL/847blH7dN33CA8wTnL60sKK2khcHt+KkXnH/6hgNwtLIg0nxSdVgOK6D4m2bnKP4q/qb56OgwKRBVQPE3qsSQ/8/Ii/MdN8533CirO4ppm8ynsKS1NYsWvg4eQr4ssUeB6Dj+jdY/I80g+fygogNbu2IvzXZXho2PUDC72Z05ZwChqfIf4FYaQy4zJvXE5bvJgE7mXyr/2lsu3XrI3g4NoEmWf3Gcp65uhH/JghhyL2lHKZAHCij+DruTFH8Vf4f90OgAKZBKAcXfVKoMYdv7n/75/U///HB1C3YtliiYaenSAt29T9fAuRYG7SzIwCNGqqv/S7BjafMrLKu6dUvBCeRL2yxs2nbaA12b7aUthrMd/wGTunhZPTrwbcA6v8n8W7bnRJDUPHt94ez1tkk0gwZwlYnLd8O/ZEFEh30PoYe0ixTIeQUUf9PsIsVfxd80Hx0dJgWiCij+RpUY8v+pPIkdWbr1UJCl69fkBd/gSmtognL3La4FDCs/+dr9MBbOZkEE+Q9R/zcu8dZPj3V86pUo84eiJRT2tQ2w9m7K8W82/9e22Zsszp+tjjjLksbY7QH/lu+i2db/xdrmBrecubLlzBXues7bJzkbXxos/7Jub3DCklr4F47+5lrnN9c6h9xX2lEK5LQCir/D7h7FX8XfYT80OkAKpFJA8TeVKgNu6+zp7ewJyp6Vbj0EygXI5he0hSLjUM6fw624fBcoh/8buXg9cvE6ibE2CyLg3/JdnBmrdOZzb8187q0Xaj96ofajX7/5zq/ffGf7jvrtO+p/8qumn/yqyU1szKVBWhJ7Lf/e/cg6i8b9jYJz+Mml71tce9/iWrIdKMbGdpo3EP/uOVG25wT8y81CwU/sO8PYNrIprGkeB+DA/sLXGU1X5p/t9MXvTl/8Ti7wgE+ofpk3Cij+DrurFH8Vf4f90OgAKZBKAcXfVKr0sw3s6rje2XG9Ezty+oYDfBlPdn7ZYoeKTVy+GxjEBmVaB4aEpeTfBxfXPLi4Bub94OC7Hxx8993fRt79beSk/1/TwYNNBw9u9f8rXrANaE1uhuVfb4IJf7AZSzvyjS0czqkK5m62hMs6/Mu6/e3E5btt/kMw84VPrAD+qWudp651OuRPLpdsGxZI52dHFM2rwlPmq0NT+/Wm9utR/vWGgPfTV9osBfJAAcXfYXSS4q/i7zAeF+0qBQZTQPF3MIX83xN5WbqRbwx+g3CTwTOAOL+UARbq5JURmwzQ3dfX3dcHC2Nukh3s/N+Xtux4acuOvY3v7218/509te/sqYV/D7ccPtxyGP7lty9t2VG8YFvxgm3QbnJKg6NgMDN5h0H5F//Xkq/l3+Jo/gP5v3aCZ8xuqpcd6bh9pOO2VwKtonFKRWNQ2o2aZz6Y24Y5DEcQviK80XrljdYrvAKNUvCQelA7SYEcVEDxd0idovir+DukB0U7SYHhKKD4OyS1oqjlGY5AHHbk5JURxqQlc6XDt4K5m0kSmLq6ETOUNIA+n38jrZcjrZct/+KNTl3dCNta5j1z5oszZ774pv3CN+0Xbl79s/tpv9gGDs9/9pX5z74CeluWhH+HOP+xa7klXG5hWPzLTQH4wP6Xt7q/vNW96PAFSJ+vBUFNNZM6gpjBgL3HNlI0GcFJu+YVqGbEGNKzq51yWAHF3yF1TsbjL1ft7utT/FX8HdIjqJ3uRAUUf4fUq9mIvyCh4q/i75AeQe10Jyqg+DtIr9pXPaxTCJyvw5NWNPBtnVwu+5Wf7aTKUqR86upGstbcJW9e/XPLqUstpy7xcsnOP/RC7UfnWz893/opJsONG9/duPGdMxwSVq52/GfHpbaOS207amp31NSWzvlF6Zxf0Bj35m38zLVumDIb+Zqf/OYtpf+ACZDsQrDF5Z8xC3JQf8fPPyPnjH9seAu3/OM2dmDoNjkVwUXNW7jgBeajr6Ke9R9udfXe6uqN/qPo5NSKFMgzBRR/h9FhmY2/N6/+ua+vT/FX8XcYj6B2vbMUUPwdRn8CoTgGENyEJbWQb39LRmeQHDZ1dSOcyyXPn/2ir6/v+Genj392eu7Wj+Zu/cjy75vvvAfSXu34T4e3rNslIMyeHZfadtZs2VmzxfKvxVtXf8eSL+vuBZ33jo6EsOj4CyiVt4IsYV6Wrv66HX9h+deOmHApd+zA2YKRzX6iHs2w5F40ex2XgH8ZrnL1ZufVm51R/tUojGE8w9o1pxRQ/B1Gd2Q2/nJhxV/F32E8gtr1zlJA8XcY/dl+sa39YhsDgmHV4gXb+iVfvyIl5MtI4qmrG+Hc5EsuihxfFDnOORlu23Lo30//8Q+n//gHLsrScW7HpTZLwR2X2tj5hV8+98IvnyMLLSXk2o203G7Bcg2s2MdfI9vM8i+QC7diyw7Av5jdjDyGVVlGLl6HfwMNy3cVl+/iiwKXTrDRAW2+Othz+oOP5QInP03akjcKKP4Oo6uyF39phOKv4u8wHkftmv8KKP4Oow9//4dPfv+HT4iSLB9cXMP4YyxXS7tUjGS3shebyl5smr7hAOUiEy5Ze+CLipZzFS3nIN+fVbX8rKrldx8dbP3809bPPz1/9ovzZ78g9DPygqVl4faLgfP7d3/zt3/3N38L/1q8dVkQ0K4FzP7416tpufD1ooWvg58wL7fjRkgHCFy+y+U/sAN4+8S+M0/sO0OZIW4Z/j11rRMzl2QJzgxrI6ZtUtHsdRSrhH+pRam5OBMeIX3MUwUUf4fRcYq/ir/DeFy0qxQYTAHF38EUMr+HXoFZljN//g4/f7XsTfcz/dkG90PAYrht6dZD5E6YU7LaS1kZeJCyO+/tC/zfgIL9XGDrAsPFLN//j4aFf7/Q/QDjNskXY3f8zLXJ/Gsx2fq/hY9thEnBT5veMCj/Un+Hwdbk/EZzFbz77ezpZTJNzkMtHlDausA0dfzMtTTAWsbgM4WQ7JmThNUGKZDTCij+DqN7FH+HyL+Kv8N4qrTrGFZA8XcYnU/2AqSGa+nGvwFr3mzqs9eDjYQqLF1Ab1HkODCYfEnLv0T5nTVbfvfRwd99dPDT47/79PjvLAUzLo6EBxJ+//GZn/KD82tn9IGCh+j/8voryP91+Q9+fgKUauMvvjDL4vJdCMJuuLRAbspbJimYQ9ATiTgbI5IdjLOR7xAMw+MqcoGTHyRtyS8FFH+H0V+Kv4q/w3hctKsUGEwBxd/BFDK/h9HAW5YTltTCjMHSn7DdMhqIx4GbT7aTsmpOGaxa/sU7/sdnfrphfeWG9ZUQLktmG/rnVf/yz6v+BeDF83U5v/2RbwL/2gQDZ7NSIMKNfyuaVwV4cgtEXsCTG0QBRk8UL6tnI3cKq+L/2vwHd+NYt2CyU3LCklpYmC1IOn7mWspU0gwux7XIiIgfC+euoBUpkAcKKP4Oo5MUfxV/h/G4aFcpMJgCir+DKWR+D4jxjr5g7uaCuZuL5lU5m7Jo9jpLZ6AcS1zgIx23U/GvV76AIuXkP0Cav37zHdiWlF7n8LoV6Pjd39a9+9u6TW8dLVlaX7K0nvxZKJily3xgJZl8QeM459e/tXueqrYj34i8/AtEUTcUCPjXTwF2WcDcL2PVqLluVGTVu2sMYs7AOe3MytjQhTPWIDhQTLEewJwmRVNKvBP+kHQZbZACuayA4m/q3mFuhZ7e3hu3u2/c7mZ8sOKv4m/qx0VbpUBaCij+DiCbh1S8qYdJQTDezjvbN8h88GuGsQNLGA3+hQSv3uxMLllASTDGvxHdeMt34JN2SvMwC1FDQ6ShIcI6w0Da2i60tV04/vlFfmoPfFF74Aso2JKvzX9Iht+C0so4/vWLkAG2CfxL27ipYJSaj8kD8C/zDzFdk1XZUSroipkbMPXjrxU8/hrnH/+jV8b/6BWvhb62wUX9HVAYbfmn0VUEthfSuhTIcQUUfwfoIMXf+uJl9fYVouLvAI+LfiUFhquA4m+/ivV0d/d0d0OmoBZGJDjm3s4H/Otn/kKO1qMkeHGSzp5eaDd6SS++kx5AqQT8X2LcPU9VswLSUkGNJVUm2A5+elf0IdFRecJUmwkFH+xH619zEmdtB2y7zIvCUGqggMFk9pmwpNbmP+D/MkqN+S8s+Pv86907M4mQLEGtCfvdgoaNe6giroXm0oE+m5pLNjUnU3ZUZP1fCuSuAoq//faN4q/ib78Ph34hBTKhgOJvvyoycAs31r7xx4gMEgZmrLH+L+TIztAZSEt6b093d3yxAo8BKY+LQTxl1d4pq/bC2hOW1MLRdjCY5dZxc6vGza1y+yS0qjDaMJpnizwkuMDW/w1uymfMonlVyUZ2HP8aKzYl/1KxYcuZK1vOXOF9prl9795RmDRe5ArQ2y+dTGMKSist/wYboxka9zxVjTEdHQvX22936hdSIPcUUPztt08UfxV/+3049AspkAkFFH9TqujRGZYiSaZxb+eN0wqaefOq+RsDVl2wffyC7fihmJskUXgJqr3eT/SS3lX4FQwY8K/vt977dA0XDTjXP79N7GW7A3Pr/9KqBM61Hy1HJ/Mvd1E4f5v1H6ByLpcMoW7oGjRKuoidsY00vgT+5SMJDBQ5S3bYXf4GFw0uTZrE/G2F87fRMFKJb3U5baMa6/9SIIcVUPxN2TmKv68p/qZ8MrRRCmRQAcXffsXEtMWXjONf7NGoRwls2swBvraT+YAHisnr5wAkXo6rULAReAToHP/alADoDwoGFbmWZwTHt8rlP8CPwG+CKew2Fs5YYz3WINN27mbGmzAKjlZZPrWw7/iXu4Z/ualFhy8sOnwBMyce/wMpbIYJt2PvZfzMtcH9+oKjs2thQbSR6Pzlre5EffVZCuSwAoq//XaO4q/ib78Ph34hBTKhgOJvShU9/wFLkRgUJPaSfIr5aFxgVzOM3UBmYBYuo9xXwpVICeDFveVfDr/nqerA+TVg6+xmbyYLkwOQkP9rd4N/3ZYEHE4gX/g6wM9o/kPAv74rDf/a3WjGvU/XYODielv+/XHjqR83njLfAGIWLTiczL8W+V3Lg4v6slv+xaQ2FTYSZNZHKZC7Cij+puwbxd+NLv9M8TflI6KNUmDkCij+ptCws6e3s6eX9/IuwRYo85Y+eFpG8/gXSvXr/9oJ00hsiNYAi6FfX18f/Av9UQkX89Q5zlwoObEBJAwa4E9RXDB3s91tAMi1v7L+L3RpGbNg7ua4/Aeff4PbxIrl24CvxvgF22k2NjGJHNwUqc3R8WneP2wJiuPzONf73qdruHEa41I+bNsCt93/IsLAOb5tRFovp7SYE66oj1IgRxRQ/E3REYq/hY++qvib4snQJimQUQUUf1PISU0G8I3MB7jP2o6W0Rz/sjP8C8wC0bz9N1fyMJBaEMs/blv+cZud3AzqTEhpAAOh12AJcUf5Nw5gZ6xJSHXgEOdTBwRdWumSgtliGbNg7ua48Rfwr3G94yA0ahZb75ubgn9dBrSt0gur8isAlnu3LvPdj6yLuzX/rrk03YHmqO3PMGJk1qoUyG0FFH9T9I/iL/yr+Jvi4dAmKZA5BRR/U2iJXctLfJvxavnXDUuDzgIc9mkUKxOgw96NL3vWRzEwoPgf3mv7h/faeH0f5NiCtI+/RgHcgEmTkDagQn/nonlVICEY26/JG53SLbiRwfjX+r+ArUXRoGFRFxgfNpl/qQIM5JrxbzHZSQ5BAbJN8Ny5o7sfWRfH5lC/yQWmg8i7qGg5Fzuv1qRAziug+JuiixR/k/1fxd8UD4o2SYGRKaD4m6jfD319f/r6uz99/R2VH6wXafnXMhrRyhmmsBiVz6J1uRKu4vm/8K/1f+Ff5zgDmNb5dXatqwoW7Dx/myXTAfg3QGw/T8PuFseYvsnr3r9xO3gR9ioB/7Lz49545cL52wBY3Fj8X/J/qQKckn/RgUQRDg9uynjNzrmmC0BjGsA3D5LkKlrOpbxEgvr6KAVyRAHF38SOUPwluin+Jj4Z+iwFMq2A4m8KRUlWxcAFuOJYz894TeBfMBnDFGBkSNsAea9kuTHzMcPkODCBfwe1dL05mBdst0howdZW/i2avQ7+HcT/jVq60KhF5hT860/8UfjYRgxxFEA6FHiy+eyTzWetDm7+Nys9RjkKYCU75ePY3Pi/Af/6WcDknDyz/3SS1W4vonUpkFsKKP6m6A/F38LHNrrSNoq/KR4RbZICmVBA8TdRxR96g5q8mJiOwpwFieEY8yh9IgOHeUnF6K9gzuMuz+dNvIb/GacS/iVJgBwAELLwsY3w3cD8yyi4e56qtuPxOMSaxW6oG7+i/q9dsj24lm+8jpsbN/+F5WsmoJv/7Cvzn33lJ79qsj/MUEfqCDfF1HYD8K/NAsY0h7vdHeGAkw1iu8PyL4csihyPplqnGGiXshe0UQqMogKKv4niK/4SahV/E58MfZYCmVZA8TeForYiAcAFGAbAFa14ELiuPv+SHoB9GZ/5kBLEYvkPVFnD/8UwhbtdSi8XxdK1xm6AtD6r3vNUtc1Ttoewm5vwghVM4dI5vyid8wt2hltnPvfWzOfegmdf2rJj01tHN711dPuO+u076vc0ndjTdOIz/7/zZ784f/aLb9ovfNN+oeNSW8eltvaLbR8cfPeDg+/+4zM//cdnfvrTny376c+WcR4SGxJmQY4X3VODnD92xvHgGwbNiy39zA0+WlqHf8v2nOA8qgIRr7A+5agCir8pOkbx9ye/alL8TfFkaJMUyKgCir9WzoBVSdoNUgV8wLT8G2QE+wPPeE/lUrXse/9oxQN7/rh1O/Mxzi+Hw7/3PFVtLdeA9ZJGwUHEHon76bfJh1gXeNxDFTDvwQ+PHfzw2OGWw+7n9B//cPqPfzj/1Zfnv/oSpL38n5ch3PaLHt62tV1wP6f8/z489tmHxz77/R8++f0fPmn+4NCOmtodNbWQb8lf/lXJX/7V3/3N3/7d3/wtE0hjc6dMToiyqic+WRAY6Ik++I9eGf+jV5wp7IiYW4Z/H65usYWGlQsc98DpQ+4poPhr+0TxV/HXPg9alwLZVUDxN6YvuNTTG1AYSAVeJfMvhq8b+QYs896fzAeK+FDkN3YNs4YlyiTBWMbYxyRReDxrBoBZ/k3hAj+20WUND5A4Me6hCpIWzpz54syZLzB2f/ObevcDw271/6vaVuNWqrbVPPdPLz73Ty9WrvvXynX/2vheU+N7TRy+t/H9vY3v//rNd/iYzL8v1H70Qu1HZAGjSUL+L7LbLAgGzgUjnudVOdQtmr3Olp0LNPFVApZLtx4i0YKziX/N46bVXFRA8TfWK4q/ir+xp0FrUiD7Cij+xjQGmjq7Ou3Mb8n8C2nCvwWPv8ZHW/EArxPyHQDBcJmpMgw4x8h3/raCx1+D+4Ls15lrwT1v5jdTt4x1b09KOpjhYbZwBMg87qGKl7bseGnLjqptNVXbanBpAdt/XvUv/7zqX1a/tGb1S2vY8us33+EHwuWQDa9u3PDqRlCXQzhh5bp/5Vd4vrP+usz9kAVBFYhoFnBMc38N28dbkr1L0WQkTRjaZ/mXG0QlvqxMW78/art7ZxtA/IQW6KMUGBUFFH9jsiv+Kv7GngatSYHsK6D4G9OY+Hu1K5j5LXj/npT/EMe/0UkieGWPmWstSEr9xq7hr93q6r3V1Wsrn3E4EJfwit9h7/iZa8HYFP7vjDXkKdvhYRwIIHPIXSXPk9JLnP0fk/+n+4GFAVuWL23Z8cIvn3vhl8/x8Zz/HxSMC2yXsPA/r/oXsBcKZomZy1g4kwWcIEnwEWIl/w9NvDwQRhj6HWH5lxuEf+msB17eFxRa6+31erOvL8FrTn1VbZUCo6SA4m9MeMVfxd/Y06A1KZB9BRR/YxonxF9b8TbwUklI8DN/g9/Oq6LyLAkMGMfREgSxMyeskQaAJWozf4E4x79AazL/Jvu/hTPWgIF2afnXDXsj87fc/+8v/uK/ux+4lcQGLN3y8nKMYJiXX1n/l92cZWEzH+b87wVz/vcCtpD/yzcDLO8BmJQuIIeX0YDFy+qttQ3/YsrbTqE7plQ0RlovR1ov87VD/Jvw4Oljrimg+BvrEcVfxd/Y06A1KZB9BRR/Yxq7+EsCb/KIMoxIUMsteU1PGgPGZUrPN3aZvj74jloHZD6QPmz51+U5WApOdn6dvQsMsoR87c7wb+mcXxz/7PTxz07Dpw5+/+Iv/jtb8B9A2sp1/8oK/Nv8waHmDw6x/uY77735zntkR+D8lpeXL/z7hQv/fiE+suVfAB+YxfK+cu1mkBziu7RWGdapjMyXickrI5QDPE00/AAAIABJREFU5mtBwL8mzQPkx5SfsmovXUBXin+TtdWWnFJA8TfWHYq/ir+xp0FrUiD7Cij+xjRW/A0n/sYU72dN/NuPMNp8pymg+EuP+un6/tfhq129+A821YkvuXwFJksMr2DCklrSpDiE4ocDPCM2v4qv5BzOyAu+RLvr4i1QK3JgF6Jwxppk/8G+puMkDy6uwX/gbRv+AylovCuz+Q/P/dOLbLTv3Mg5Y4t7TVdeXv7CL5/jnNZ/4C0fRYWCLLS6o2V1RwfQpy/IGPO6g5EU09bvD9Ly/LKfiMMyMFv8ujyYRVNW7Y1OeKrxFwPLrN/mhAKKv3SD4q9XsTcX4q/fH4q/OREd1IhsK6D4axX2/uwvfd/DmzE7liHI6/LH+DLVI8RaXL6L90tg1wDVdvzL9No5N0FCV23Sm0MIxPMnlPRqzfjjjCFfy7/29Zr7LS0ECdmYzL+V6/6VcpGALW/JWAK2vF5zZXeoy0NQthRswzQF1zesr4R8Wf6fp5/+P08/Ta2fKRWNUyoaec0I8lvFU67zLeHqzc6rNzvnvH3STkvKV4SgBOjsdUG/ROvyTF4ZifKvd2K9f0sprzbmjgKKv7YvFH+9uhCjHn8JnYq/9tHU+h2pgOKv7VYv/nZc74R/3TgIB1nAF7liDLuYtKKBqYP6qSxjT97nZtlh5AVDNjgb2Wx2oK3jX0u7rNskM7fuGunNE2rKtLuRF3eVPL99Rz2VJ0kmI9uXZUNDxP2QXla1rQbOtdlm5JyxnXVQ+oVfPtcf/+L/lr3YVPZi0xD511fNH0Dc2/tG6xU7ONul/SXUp6ezJq1oEP8mPHP6mMsKKP7a3lH89aKw4q99JrQuBbKngOKv1daLv+c7boC0yf4v8IUdyXLq6kaGCVBSJzrywjuPPa9bB5MZjAsY4iPj/NqC6w5jgVnwFksXCrbAe/cjMSe0aPY6dmBnMh+wYg9+eAzaxe215SVJZsD/ZenGXxCOWVrnl5Mw7OLv/uZvyaOwIy+oPMkN4v9CwU6NIazEugPb3Saf2A5ifeLy3cxghPNLQuEQrqJdpMDoKKD4a3VX/PX831yKv33un0PFX/ukav3OUEDxN9aPzA55vuMGg4nj8MqvvAPKwa0sSzY1R2sqxs7T39oPvpv5RusVzp+c+WCR1vm/YCy/smCbTMHucH6F8wv5nvD/O3PmC/iXQcPwL2BLrq4rpkPyL7uxg3V+XYCuXPevAO+svy6z/i9n49J8aUAuUj7606e/7SAtcmG70xFxHeSPSC4u38UQ5+hEn/1+EenvWtouBcJUQPE3prbibzjxt+zFppjoQ1uraDmn+Ds0qbRXPimg+JvYW0c6bmNWpsCrZfXFy+r5Lcs5b5+kmGTU+U08m/3c2dPL1ESkDOMgU1zGXsthLORr/V9+xXaW5D8k+L/sBv9iwrZ+/mnr55/+0Nvb2vqn1tY/QcFMPk9FSsvCzgu2+Q/J/i/VKeHfkr/8K/xfRsGRLPzg4poHF9eQNMLNcuNeeskwQ/Cxr7616dKBdH46NjeLdX7/0jpbAlT5v/bx03oOKqD4m9gpir85GH/7+voUfxOfVH3OfwUUf20fenZhU/t1hmzZbATSS8Eu8nYJB2+0XrHHD7x+tasXOoOdyfwNiotT2d0M6HL5D3CudXttei/r/Hb8zLXA4Hi/JAL8S5YCswfduPFdx/XOjuudp/z/Ll/puHylo93/r+ngwaaDB23B9aptNdYmBplxfgnQoC78+z8m/08+kg7MCI7iBduKF2yz/MuNl9UdtVm6A4tmf/vM/tPWfOerg+Xf+xbXDrEQhz1tzq4rfyNnuyZTDVP8tUoq/r743D+96FIgFH/twxH+uuJv+JqHfEXF30TBI62X4VzLv0Ccy3ko2dTMGLlT1zqH4vxyjUvf98C/8DUJVSkzf8nhhW0t4QasZ4a3OY84GZOxhoFQrN729vbzX315/qsv29outLVdgH9Zfnr8d58e/92G9ZUb1lfCsOXl5SAtxRxAYyIy2+1vS/7yrziKneFfTG0aAOzDv7N2HokWqk8Uf+DPkdbLfO1AQErQWf6956lqcqupcD/0rhn4uvqtFMiSAoq/icIq/oYWfy99e/vSt7cTO6D/z4q//Wuj3+SlAoq/sW4j/2zzyXbIFP5lSRIrzi+j40hK7exJPc4tdlKz9uWtbio/WP5NLuUVeLjR2eYd4RbOWIPPa/1f91tW3EfHzmwhFWFv4/v84PZiCl+69M2lS9+0X2xrv9j2+6Mf/f7oR+/t+/f39v37b35Tb/N84V8LuTi/AO+svy7jI4CMQRzcyILt4xdsh3+58Vk7j1j/98btbiPS4Ktz3j5JHgXntKkj4xdsp8QEtYMHP5f2kAKjqoDib0x+xd/Rir/DCsGKv7FHVmt5roDib6wDib/P7D9NkYGAf/2BVQy4Ytwazi+EFdQZiJ1joLVT1zoD/l21d8qqvZwT/xdUtEsHsHZlAP5NhmJLxFSBKCit5BKlc35ROucX7MAoNZZwK6m+bkldtHd/G3E/bNlRU7ujppb8itUvrYF869/YUf/GDs42bm7VuLlVzExh+ffh6hbyoBF8IMlS/a6i5Rz8ix0P/wZm/cLX+VV6/nKqq2mbFMiiAoq/MXEVf/Mi/vb19Sn+xp5areWzAoq/Xu+BscTfRZHjuL0gFZm/4BveIhUGrnb1Xu3qzRT/xpmYM9eO981fl9XLRwfCFmxJ8i0orewPje3OBaWVgDBHxZ1/9vrC2evt9sLHNpK6YJHZYjLBmuWv33yHwXLgMLcD/9qiyfi/jn+ZDSSNPx86gmwKm0BdOH8bl7D+chrn1yFSIBwFFH89nRV/C3Ml/g7pfabibzjRQVfJtgKKvzGFmb24rO6orcmAP8sUDOSWUvBssKneYqf117yRHTH/158SLXCZ528rnL/NzrXhOBc+BT8tqyYgLVRrd2Dd7gbY3lXyvN3IhUgT5iqB5e0Pxit89FV7HneGu0qet+uc0ButZyI454F8ydLlC4TL/8X/jfJvOlXKFkWO4/8C6Vy9YO5myvTwHSV6/oS+0EcpkCsKKP7GekLxV/E39jRoTQpkXwHFXzT2EIzJKaat388re0xMII4XPmQvRMdWDbtzTl3rfGLfmSf2nQEDyX/g/APwLxAKnwaUmjT+raC0EpgddDfQFWi1yBzHv37Kh+NfDklechKuW1BayQ4BvPssjIzcJkMKMWfL6o7G8++wleSAZP+3YO5mQJsqENHSdGmeX4dJgWwroPiLwoq/3gxGAf8q/mb7z07nlwK+Aoq/sQch0no50np5yqq9wSt1Pwzh0pL568a8DWvYm7vAqWudTzaffbL5LDQNGAa5Fv61rN/qUhos0tp16+Sm3Blj1/EpiGqPSiZrzO6gJMVjG217LP9yEs7PPgH2zljDr4IDH3+t4PHXLP8ygLBsz4n4/N90/N++vj7ewuH/ktdR+NhGLodTj6GkKjbuCdRKrimg+BvrEcVfxd/Y06A1KZB9BRR/YxqDtxOX7w4GbvlMSi0IeIpRVSSrxQ4b8loC/3LmuFyL0krHp67ag2Vem+vKdkjTVf61BoI90FGwA9XCGWvsDjbyOkvasi0N43CbMuEaYM8cHOjnUfAFwpZOLttzYsuZK1vOXBlmDkmi0IsixxdFjmP4ci93lTwPDvMNQ1UgEiXT5xxTQPE31iGKv0Rhxd/YM6E1KZBNBRR/PXVJFKU47/1L6wIY9O1LwI3MB1vzIY1OcfxLEVucSoId+ObgFz/X8ilgaynVpkzE9vSnRMNTZmcOdDtApu6jN8vy3M0FczeTqwCr0jCPtf35OCzY2gNZh4XvfmSdA+HxM9daQKYxyAiWznn7pPV/0/4+UfZiU9mLTUEWhN9UL8HZvx1Sg6Oj4NL0l9PoYh0iBYalgOKvJ5fir+LvsP5stLMUyIgCir+ejCSKYvJOWFIblNTy/V9IiryFaOZvmjyVwL/F/mzKWLqwZAL/WlalScBdgMwLXy9a+DrbY1jq8y8AC8zaXI7CR19lz+BsPuDbLF0GjwX8O3sd5GvNXKtM7KKz1zkKthuDdb9Jln+d/zvC8Wm1B76oPfAF/GuzIO4qeZ5bwCC+erPz6s3OjPy16CRSILMKKP56eir+ErAUfzP716WzSYGBFVD89fRh5Bu27L1P19gsAltP4Mbtbr9SeBr86x1ypON2cv4vNm7AmP7AthQIOXud5V8cVbssePy1oM1+ykFyMA2QeV4Vl7Mczc5gPuPTQGbn5w7Veo6fvNndBdciSyEh/xf+Tdv/5evI3K0fzd360cxf/NvMX/xb8YJtXJeb4ldM8zHwn4F+KwVGRQHFX092xd98i7/ev2eKv6MSMnTRDCqg+OuJGYy88MuSefzrO78sATdS09A9DV7jkCMdt8mjsOPfoMsANn/0yvgfveLI0a7ArXi1kC+Ix3L8gu1gZoC3vrELuYO03MW9T9dwrK1JRmm3uJQMvwCxG47MmcmJtlexzXPrlq+tjJjRCfx7q6v3VteQCk6aJ54vH94S1wjIRYepqxuZ6c59nLq68cNjn3147DNzBq1KgVxRQPHX6wnFX8XfXPmLVDvGkgJjM/569GTLApAoynfwCUtqgUSQjY2kBvf1+Qf69dqH+ZB4Bza1Xy/bc6Jszwn4l6s4cvR4E+72PVy7PfYrv1gw9Gr5956nqhlHB5+CyeRXEFi54uSVEfIQQGMyB6iiwA4c7i4d0K6fUQv/Wgp2u9kVbsE2gy00jyu6+mcjqE/m6Xnsq2+PffUtNwjgT1y+2yYFc7k9TSf2NJ0YZn9pdykQhgKKv57Kir+Kv2H8tekaUiBegbEef5nGDXsX1C1eVg9agorYow9Xtzxc3ZJ2PQFmlotcDPgXLrOwaa1ScNKVdOCj5UpLvm4dmibPgXVux87ZXLKpmThrNzKdMztzYHCtx1+jhTAvZ4asMXkt9rrWYmfbQ+xJuMqsnUcWHb6w6PCFtPjXI18KR9BriBn0Xfkuem3mz9+Z+fN3QGPr3cc//PokBUZZAcVfbxpNxV/F31H+Q9Tlx6QCYzP+el1NTgKDo7B3HUPh/OKfshHIYjdgdlhPC9facuYKQ+w4Z5Cx63u+loVT8y+msD+WjOZBvvieCRRs+Re8Zd6NJ/ad4SPTQ5CMjCXNDcYVY5u72WJs8Kuk2eoY+eb4l8ZzOzSDJVuQdNbOI1w6qM87fD+dzDOca8QEe4uj/Mvt4AX/rKrlZ1Utw+ov7SwFwlFA8dcbnKr4q/gbzt+briIFrAJjN/6SzIAFCQ8GqbLL6pMTDIAsXGAGa1gRB10HmSs/+ZozgIFuyl7YsGDuZke+buyZ40o7CM1m7ybwLyAMcpLkAPDCm5WffE0JY8rvYsIG975q75RVezF5sXfHza2y6cacky1BSoM/4I2muvpnAf/6CcicDVpnnZaXbj1Ee1BymPnUnv8b5xeV7you3+W+AdhvLQAyCcJC4EGfUu0QvgKKvz2Xvu9R/OU1o+Jv+H+BuuJYVmAsx1+v37EgLQNOWFJLGKIMgoVNvqQHs2D0ehnEQ3x0yLJYdPgCRAYSBv4vjqqfYws8skw5/4X1VV3G68Tluy0AOhLEEoW48X8jF69D4lA//Islzc7cMrbvuLlV6GBtXMu/FtILZ6yxNX8BZA63SM6pSjY123rKQ9SQ3QIl/ZkvAHymEUm4CrdD/gO3+dq7Z4Z1Ie0sBUJQQPG3+8tb3Yq/ir8h/LHpElIgQYGxG38Z/8abdExSeOqep6ptFQWQDbzCBY6OhUtQcqCPUPYT+86QeAsYWkgEPK3/Oyz+9RDYrybs4HfCklpCKsRNkkPk4nXMVvgXE5Ydgvjr1xR2aQ/cO98AYHbaCbkP0FpuDVi2DeOE09bvd+2JXLw+kHBJv6PlWLqc2XaQq4PBRr6vwNqXvu9JOpk2SIFRVkDxt/PUtU7F37EQfy9937P7/2sb5T84XV4KGAXGYvyNvnD33qRHLl6PXLwOlgJ6hY9tDBxYm5nrJ95iNUbHU3mHGyUHWoWy57x9kuFn1maF1AbgX+urBgPPfEq1L/qxgBNcYHA+GOrm152o/ORr7p3EA1wXy780Bjwfv2C7pWn4FwMa/sX/dbPD8TGQzs9WDvjX5Cdw/ikVjfAvs8BFu2MgAd3v8H/h38CM9g101EjoOzZicEezVobaZe6KWpEC2VNA8Vfx91Dp1kPwr+Jv9v7SdGYpkKyA4q/ir+Jv8t+FtkiBMBQYi/HX6morn/HtfvzMtcyDybfsIFfM9yL4Yl79/lfV739lTzLoOi5HWd1R3ghxHptMxvoAb7SsJcLh1n+YtKIBgCUpjSVvC8nB4vv+8o/bXCUgrxhQ3dGyuqMYFJZ/GWp8z1PV3DsuhH3/RmOCJvlzJjkXwraTm0oeITJ5ZQRPAP9hWFXYe7q7e7q7mVgzsEEWbB+/YDv5y4WPvnpXyfN3lTxPe3B1UICswUF7SjtIgTAVUPxt33yynVCl+BuY0b6/rPgb5t+hrjU2FRib8dd7dcbkjySTAXeulIzlX8DQohaTZTB8eYCHJvpaybsW8DVr5xE7zIw0L176BS/W/BG9sFtBaWUAcWZey2A3M8k8/3JMWbWXt22WgvlV8P7NR91Fhy8k8y94yIHoQBS+9+kayBeAZWNKTi+csaagtDL5/Rv4GSC5nx7H+SevjDAqJK0qlJ6e69/+fP3bn9tOCb5YzFw77qGKcQ9VBDzuvwbk1nhr2j1Ah+lXUiB0BRR/Tz+z/7Tir+Jv6H96uqAU6BuL8RcyZUwEIAapxQjOB0zAjcAEasGqTHszhGfHIzWuRb2bh6tboFTr/7qkN5c7RTNS8q8dsgGcArlTVzeyQmtZxvGvn3+2/OM2KpcHfrS/EUCmYTTGpZ1ZBQL+9QvrYPLSzoTW8hG5LP9aE3nSigbLv3QEeka/NKRU19OTH1x7vg2gCRQ/fcOBIBHNd6VpJy0n2U6jMFIqq42jpYDirzexheKv4u9o/QXqumNZgbEYf+lvJhMCEq39OmFJLaZw7YEvag98AU/hKgJxJpN/oGR+UA6XmRf9pVsPWf7F/4XO+AdggIwCm1fAzngmnHDq6kacZT6yZIv1fys/+Rr/l3sn/wFy5BBHvqywEZqmncAmjcEuT+lWw782/wEZ3WkZ9EFVIAanALYD8i/95iHw3iPte4+0B/7vzLXjZ67lNs933MDn5XLAOHJxm0c6bo/lv3bde64poPgbmbwyovir+Jtrf5lqz1hQYCzGXyrvAEoB1s1e71VD91+Xz9p5BCI733HjfMeNYAffTwTf2D7owwHKkdy6/OO25R+3uWFm1v+1/BuYp/61nP8bYCYjes2QaLxa4ua09ftJAADnWVJOPqi/4+c/VH7yNc0O+Nf4vxxiKXXi8t3BRn8AsZ2aCP5N2Vrr/yaPP0bAict3g6tUxrHfJwbk35j/iwUfVPnx5eL2r3b1UqCHuw5yIXzRuJfNJ9sH7TjtIAVCU0Dxt/qep6qZikLxV/E3tD88XUgK9PWNyfwHmJQaLrioltoqWs7hRf7p6+/+9PV3IBsBGsi6cu3mlWs3o+/iB3iKPF4Dx+Dfkk3NeKnwr/V/rQFC9rHjX2DT+r/4qoAzJ5y2fj/+pqVg1gP+9VF388l2ANPW3wFFLeqS9jBpRQMOMh9xUa3/m5J/bWs5hMMTIrvlX2AcHQfkX3bxVOUryIOLax5cXMO/mky12dnVSb9sjPxxY+SP8C9y8UVhUeT4AB2mX0mBkBUYi/yr+Kv4G/KfmS4nBVIqMHbjL3hISUlQDosz0noZhgKy4F+qCjCTOSkEKdVM3vjNtc5vrnUy0MvLTvW91IH5N2VGgeVfC86ccNr6/RAlNwW3sk6mLfUf3mi9QgvtrEsAMjtzNpiak0xZtRd0DfjXt6Et5CbQegDFxqe25JvS/43yrwe2g/IvO5BV8pNfNf3kV010Det9fb1BgnPr5Ujr5YDW/Wxu+Ldyl/g3+SHVllFTQPG37v6ldYq/ir+j9ieoC49hBcZi/IWhXqj96IXaj/B/8RBxVI999S38C0mxW8nS+pKl9Qc+aT/wSXvU+eV1/CDPDv4vCcUp+dfmQvDPQAJRxsGmP/wM/uVAiHXq6kY4l/ruBNMHXt73wMv7LP9GLl7npmgV6QeWfyFfUJGTTF3dCLTioiIUTQpQN5qtQbNta5PnH3L8i1tNAxiMx7eKQfk3Krcn/udtlz9vu7zpraOb3jrKuuuaIEHYT2shUQSD2/9yEz2H/i8FRlsBxd/a+xbXKv4SbRV/R/vvUdcfWwqMxfgLJVHGDJcTc5Ol838dTPWzMuiD4jGam3nziX1nHP8ChhZjU+Y/pCBK46viVkOUjn9xgSFfWJhKu/i/Te3B/JvM4gOVA8jEX8gXTaZvOAAz8hUB/rV4y7pzq2ltAMVkK/szA9FCTpLAv7QK/kXkIfJvdDe+gnjLqCkfrFTsOV2x5zRZK1j8lAy+1TXQkMVBe1Q7SIHMKqD4u3fKqr2Kv4q/mf270tmkwFAUGJvx11MGJxQsgstAvEWR41dvdl692RmVLwZZ0S2D/p9DvN0S+dcvg2vzH2BhLj2oo8puwc7+vA+0fMqqvWCsdYHxWCny4EaaMfaP/AGykjmEnQFeYnHp1kN8xBbnosn+r3Ork/mXf9XAzwH4l+LIw/R/Y11gWfiHvj7GLsL+5D9wF1zFp+zYsVqTAqOrgOLv8UWR44q/ir+j+3eoq49NBcZu/KW/cYF57wQuTd9w4P9+9uf/+9mfR/xAeBR86dvbl769TaGvaev3k66A88sSSByi/8tuyfw7eWUkGOfm13kgmOIFW/49dc1BvXdzVMDAILbxl3VXrS3gX1P5d9D8BzAZtOffNpIQoODi8l1cgpq8FEdG7SjMpqG9p/bVrt7KXccrdx1HZzoUZWyV4TTOrkOkQDYUUPz1EvUVfxV/s/HXpXNKgYEVGOvxl0wAakFgv3p09mzD9GcbTl+4dvrCtWG9l0/WGuzCfnX8a3N+raULVyY4qjbloD/+nbSiIeBfU9LMbmEAXsf1oDwCN4UlShICsGxLprlqbf35vylb21/+g6Xgict3E+7dqLw3Wq+MgHxjqm966yittYYSmN/Z1RmtDhHbX2tSYHQVUPz1vrQq/ir+ju7foa4+NhUYm/HX8woBLrAIRAJFJy7fDT1RUotiPWk8HJyfIhIx/vXzH2z+b8C/xl1Nyb84qvCvTRymqZNWNBBAcVRJabD8ywQcnT0u+9VTgMILHMLhZD64w3FRA1o3LbT+b0JrLf9ibdNCsBT/1/Fvsv+bhs6wPEMTixdsI4W5eME2tx6drzqtc+sgKZBNBRR/va+lir+Kv9n8K9O5pUBqBcZm/E3U4vTF705f/I63cEXzqmz2KIW1KGMGaiUePODnAfxf3s7Dv6wDjxDluIcqGFrGxsBsnbvZ+cVgaUqiJOcBjAW9ozkGcfxrc5PZmRvn8JJNzZQu40K0MDn/d4DxbxxI5gP8y7rjX/zfaNs8HdNwgSFfmjdhSS38y0eSu6PZ3B7yD9hX+qUUCFsBxV9PccVfxd+w//J0PSkwNue/iO93sMhb4kKMn7nWDgNjDgWySuFfBs7FnyTFp2T/19V/wBgNiNKv0WVzCSho63xVfhVk1Pr1H2ziMO7qxOW7QVccVbiSkErqsamx4DWVtgGGdhScNZGnbzjAyQP/10dvGmOXrp2sBK3128ltQr42LSGhtWnxr9dfePd8QcHwLdnUbC/KP6sp+kabpEBuKCD+Vfz15gYlWCv+5sZfpVoxVhRQ/KWnvSjMxG7Tn22ATElKo/4vS1dka2hOonfORP/Xz3/Aw4Vzk5cpHdUAOf2pHJLzHxKIEs8XG/fJ5rNPNp+lKoJrNjdCFQjwk1FwpEwA0dPW74d/k2c+pjFBqkN8/V+b/wA4J/PvpBUN/eX/Dsv/5YvI2x9+8faHXzDh26QVDXxR4PuK7a9hnXms/PXrPkdbAcVfxd8rW85cUfwd7b9EXX8sKqD4a3vdI9a3P/wCPgXcICmGyeH/2gMGWKfSGPzLi/ipqxs5J/yIZTnzubdmPvdWgLez1xXNXpfaUaWirvF/oUvn/1LzF3QN+NcfC4e9a9rvNRkYBA/JAk5OmXAzXwT+r5//a/MfaDOtHfdQxcD+r22ty1a249/QdsiUGnONQHsmKCmaV0X+A3NXD/OcA3SmfiUFsqKA4q+VVfG35eHqFsK34q99MrQuBbKhgOJvTFXg62pXL24vrAoLkxoR5V/gK3bgwGvnO25Al5NXRh5cXPPg4hrqSzDYDAq2XAlI3lXyPCt3P7Lu7kc8LvbQ2E9CsP6vy6jlbPAvnq/Nro06oSlaCj9ay9jF36Hk/9JIt7T+L8P8sI+5TWjd+b+0Nq3537wbIX+DYYrY6HO3ftRy6lLLqUu2p4bM1CnE0SYpkFUFFH9j8g4h/sZ2Hvqa4m/RwtcVf4f+wGjPsaOA4q/t68BV5MV6puoGnDt3jlSKmT9/B0qFgoP8X9/YHaL/a+s/QJeMf5u0oiGZf8HYaOavvc24deZCBpkBUlKGnf8QfA/op/4D2RqJ/q+Z/w3nN6X/a/l3WF4tOH/884vHP7+IjCRUXPWmd4v9iHzjelofck8BxV/bJ3Hx1/5iJOuKvy4EO//BJhpH/4XwxB9ixFT8HckDqWNzRwHF3+S+cACV/Kt0tmx66yge5bT1+3lNTzzCzA0omAFjvsk7QP6vrf+LC4z/m8C/VPsFY6OZv/22nFhGgTSQmeWUikbCJfxrHeoBaN36vwxF42Y5CSecvDJi4y8JGETeIcZfIJckBxJUyN128Dvk8/Qri34hBUJQQPE3WWTF31M/bjyl+Jv8ZGiLFMisAoq/mdUzxdl+VtVC/u/0DQfITrWZFfCvJUr41+U/8Cvw0/q/QRWIha8XLXx98soI+b/kPMC/LLF3UzQrugmzm7kwQGaHiNaGAAAgAElEQVSWUyoaqf+bnKGR3NpE/9fkKeNTW/6dsmov/AtoH+m4faTjNunSQ+ZW929k4sqQzxC9f/1fCoyeAoq/Wdde8bdw/jbF36w/Z7pAHiqg+Jv1Tvuv//qvZ/affmb/6ZJNzfAvNmic/2uyIAbyf039X5sFPHllhPwHy79YugNk/to7x4QlCyKBf7FxLYazjtXrMn9ZCfxfn3+5Qev/3r+07v6ldVNW7aXQhOXfYeU/ALksozfogfAP9pa0LgVyXgHF36x3keLv+AXb4V/F36w/bbpAXimg+BtCd/WCoiWbmqksTNKu5V/rqAKSzlG1GQWYxRwI/+KuTlrRYOv/4vyS1zWoH8oO2MQUiwBLp65udBOCeAjs52YkLxNayw600xI68ZcBdVMqGm1tYkpkDIt/Q+gzXUIKhKCA4m8IIiv+Bvyr+BvC06ZL5JECir8hdFbv5pPtm0+2l249NKWi0eV1ga6kNNgsCOerUtOAj3Al5BssKUg2f1vhfG/S32DqNr/mGfxLXkHUHh3kNpnmmVrAzv+1/Fto5umgMa6d1gIO+Ne3s2kn/i95yiRUTF3diP8bn6FBJsMg7dSvpcCdpIDibwi9qfi7XfE3hOdMl8g7BRR/s95lP/T1kV37cHULWQrkP5BXAP+CjQHkllZaokzh//rkC11yEse/WLfYzfiqg/q/ADJLLGNOMqUi8H+DCw3o/7oGB/xr8n9t/gNAPXV14P8m1SbW/MRZfxp1gZxSQPE3S90RjAsg/Cn+8v5N8TdLT5tOm6cKKP5msOP6xTe40vEvNihgmOz/uvzffv1f+Nf4v27+t+Sav0P0f9kNyxj+feDlfbSzP/61/q/L1rD+r81/cHWKaSr5D/DvEFuYwX7SqaRAjiig+JuBjvih142CTX02xV/F39RPhraObQUUf7Pb/5Q1gCvL6o7i/6bgXzP+zXmprFj/F1i2yEwSRXH5LjujMOEerhzU/+X+2RnL2OU/kC42FP4tKK0E2/vzf7G8Gf43bf1+pvskLWSILcxuP+nsUmA0FFD8za7qir/YLIq/2X3OdPb8VEDxdyT91us7DwOdQfFX8Xeg50O/G9sKKP6G0f98ry/bc4JREvgPpAQEZoLxH9x7rRTv33jn5md3MWQjpf9AMR3rPwz6HZ8d7FxEU1c3Bv6Df1GMBdpm1zFJxj1U0Z//wPybln+nbziA/2B9kjC6QdeQAjmmgOJvGB2i+Kv4G8ZzpmvkmwKKv9ntMcuVP248xVuygauwu/yz5PdvAfMm8++yevv+Laho3tfH1QeuyhhFYy+F42qX90O1zAde3ke5Mvv+rT/+TXj/BtSTf2b5l/JDJZuay+qOltUdhdOz2wE6uxTIYQUUf4fYOWlWJ1D8Vfwd4hOm3cagAoq/Q+z0NOMvZ3dcCaWCgaTEQpd2dssB/N+Af32zOCjZM6+qaF5VcfkuW38H/mVioSjeDuk2XTuf2X/a1QkCZq3na9dT+r/cFPwbV3ly1V4mH2KcCO3U+Ish9Y12uhMVUPwdYq8q/q4rmr2uP/8h4f2b4u8QnyrtNsYVUPwN4wEA8SpazjHvJPzLKykK6AQw69e4cfxr/V+Q0+4GMgf5D/H+bzCje6+XHjdE/gWWLf8+8PI+Wmj5F2+aFtp2DhB/8R9IpWD4SenWQwxxPnWt89S1zjA6QNeQAjmpgOJvGN2i+Kv4G8ZzpmvkmwKKv+H1GCXYE6qwJ/MvqAv8FpRW2q/8/CqOhfF/l9Xb+YeC/Ifh8C/jRBL4N5gnyeT/9se/ifkP/jyhcf5v+a7i8l3w78PVLQxxJt2YmYfC6wZdSQrkjAKKv+F1heKv4m94T5uulA8KKP6G10tvtF5h3p3kKjzW2B0q/5IF4c8/VJyKf4c8oyWvFr3lEPnXUnACp+NK8/6NJfkPrvLOtPX7H65uia+8Hl4X6EpSIKcUUPwNrzsUfzFJFH/De+Z0pdxWQPE3vP5par9O3YMHXt73wMv7mAyC8jRp8G/gAsO/0fzfOW+fnPP2SfIKerq7e7q7h5X/wCycwOnU1Y2B/+ubuQlU7gzf1PzrW8b4v5wE/iX9+eHqloqWcxUt55T5G97DpyvlpAKKv+F1i+Kv4m94T5uulA8KKP6G10unrnXCp3wNt1Ugkvl3/My1yfm/NhciIf/X5j9E82o9S3eI/AuKdvb0dvbE6j+ArrZtjnaTV2ib9X/JTSaJeIo/8o34O2vnESbEC096XUkK5KQCir/hdYvir+JveE+brpQPCij+htdLl77vWRQ5vihynDDEKLhkjzUwdmes6Y9/LQWTPuzqPzCu7HzHjfMdNyDfIfIvu8G/mLMPvLwvuW00adxDFW7CTQfCQbNNbQo3Nq94Wf2UisYpFY0M/yvbc4LKv8r8De/h05VyUgHF3/C6RfFX8Te8p01XygcFFH/D66Ubt7tJLbD8G9RYMDkGdz+y7u5HvEo3oKX76LZYpzXg32j+L+PKKPc+5PxfTwH4FxeYRibUf6AZQ+RfSkaQ2sFkH67yQ+nWQ2V7TjBCT/wb3sOnK+WkAoq/4XWL4i/DTxR/w3vmdKXcVkDxN7z+udrVC1ryNRxLlMI0YCwWKnibSLsz1jDqrHDGGsu/AWNG+ZepKxjGNkTnl/tnZ6qgVX7ydeUnX09bvz+Y/8LUf7D8m+AC03iW8G/yyDfi748bT4l/w3vsdKUcVkDxN7zOUfxV/A3vadOV8kEBxd/weulqVy9oaatAMAqOIrkkzwZ4G5//4NIMXEU0dk7If1h0+MKiwxfg37RvbPPJ9s0n22P+r/Gm++PfwhlrhsK/D1e3PFzd8mTz2Sj/pt1GHSgF7gQFFH/D60XFX8Xf8J42XSkfFFD8Da+XnP9AFQhSAuBfrFLLvw54sX3dxwT+dTkGjH/DX07D/7UqMDgt5v/2w7+2SQWllSRIBP6vfwipHaQ5k/KREH+H5VDbFmpdCtwZCij+htePir+Kv+E9bbpSPiig+BtOLwXVdeFTWwWNKhC20gL+bwJd2mSDFPkP5bsATM5PGbO0bwz+nb7hQJD/kMS/tM02yWVlBC6wPytHUPnBH/lG88rqjpbVHV10+AIz1Cn/N+0+0oF3hgKKv+H0o+LvgekbDij+hvO06Sr5ooDib3g95Y0/9vMTCEM4tnFVIPxM2wT+tZgJeCbz78TluwFM8iso45D2jVGcYfqGA8m5ycnky5aU/MvIt7jKDz7/Ptl8Nlr/Ie026kApcCcooPgbXi8q/vIPj+JveM+crpTbCij+htM/nv9w6fsexqfh/1r+tVUgAryN5v/eVfL8XSXPWwoOdnhsY+FjG0mcmLh8N2PqSN0dQV6B107M2dKthwBYOzYP2k1eJvBvUPnMzHkcVN7x+feJfWfEv+E8drpKjiug+BtOByn+NpdsaoZ/FX/DeeZ0ldxXQPE3vD768lY39clIw8Kxxf+1TmuC/5tsuZJjwLQUrsYCY+pIXRgB/3pqMH3GrJ1HyE0GZslNJhnZwrjzf+34N5CZw0lztvz748ZTmv8ivMdOV8phBRR/w+scxV/4V/E3vGdOV8ptBRR/w+ufL291M/8b/Gv932T+dfXPgE27DMaY+ckS8O/klRHOGc2rTfOmAOdL3/dc+r6nbM8JcpODGZqZ2MIvw2b9Xzc8L6Byfzf4l8Mt/2J8m/kv0mynDpMCd4YCir/h9aPir+JveE+brpQPCij+htdLbv5NzFDAEEgk/8FmGjj+Jf/BImfAv/6wNAbOTVm1l6/21BUbof8L/z6x7wxtG6A2hWuVq39mXelk/xdIL9tzIiM+dXg9pytJgewooPibHV1TnVXxV/E31XOhbWNXAcXf8PrexV8yH5L5l0yDwEiN5v86xiworcRsTebfqasbcZZJXRjhLTELXEXLuSmr9k5Ztffep2vufboGsA0uXVppW8V60Oz4rOSJy3cz/o1bToi/I2ynDpcC+a6A4m94Paj4q/gb3tOmK+WDAoq/4fXSqWuduLRkPgCG1v+1mQbO/7WkaSs/BGPMltUXL6t/4OV9duaLEfq/KLLlzJUHXt43wCwYtmHO/2XmN5DZ+r/cMknKs3Ye2XLmypYzV8KTXleSAjmpgOJveN2i+Kv4G97TpivlgwKKv2H00g+9vT/09h7puG35l5FvQCJpDAPwr3V+sWLdzBfF5btKNjVT+QzrdoS3BD7/v1Ri8jRsbjImLxgewHh0YubAGvazki3/YiKD0pxw1s4jGv82wj7S4XeGAoq/YfSj4q/ibxjPma6Rbwoo/obXY03t1y3/4vxCl/BvgZ/S62aBw2CFfIHNgDH93Vzlh0krGh6ubolWFPMK/WTklr681U1rIfSAzf30BkvBNC/B/6VtlE8D8xNGweH/8s9SRlqrk0iBfFRA8Te8XlP8df6D4m94j52ulMMKKP6G0zlBXV0G4JIMazMfAMaU/GvJF+eX3fBYSaJ4Yt+ZaOZvBvgX//dWVy+zyXGJoIW+vQv/soR/C0orAzY3VSlAe26TkxB/y+qO4laHI72uIgVyVgHF33C6RvG3cUpFo+JvOE+brpIvCij+htdTTe3XGYBg+ReMLVr4etHC10mede6q9X8DumQqYn9nbFkyupZ/3EbmQ0byH6KK9OISwOyYuUEtYOMCuyzgAIf9X2EWU9SCdpIF4eJvRcu5ipZzmv84KrX+n68K/NA7otctir/hdbzir+JveE+brhSKAiN8h6z4G0Yv0UlN7ddhScIQYAgkJmcXFJRWUvM3SLM1dXU5BEe1bM+Jsj0nNp9sh3wzMvLNKUJOBZcggSHZBU7kX9NOkjoC/q3w/AdovazuKPPUuQtpRQqMTQUUf8Pod8Vf/rVQ/A3jadM18kcBxd8w+krxV/E3jOdM18g3BRR/w+mxuPyH5JmHEjLPKL5jp7lkUIYd14AhgKERuXgd5yGz79/IaaOyJcMosBRsnUwaeVfJ8zZPzmbI4T/Y8W9ldUeV/xvOY6er5LgCir/hdJDir1dKzb1/U/wN57HTVXJcAcXfMDoIOD321bfgKvzLwASWgK0beWyLTwYDfP33WuwGitr3b6eudZLLldH3b71MRPTM/tPP7D/NRe9fWnf/0jqaAfC692+2nfBv8J7QL+IO/5J45/g3DOl1DSmQwwoo/obROYq/ir9hPGe6Rr4poPgbXo+5/F+sW0Y02Cw0O/9mQl0bRh5DlKAoEe2JfWee2Hfm0vc9UfLNwPhjp0hnT29nTy9jhcFtWptM64Uz1sTlyZkRItws4y8A/1k7jyj/zImslbGsgOJveL2v+Kv4G97TpivlgwKKv+H1UqT1MgmwwCAwa5fJozCKZq8LTOEF28cv2G5r2cCVlMi51TWiQZD9SUDaHO/KwG0aALlbWmfwcdHsdTi/duQFtM6BnOTh6hbGH/f09vaMbPhmfy3XdimQFwoo/obXTYq/ir/hPW26Uj4ooPgbXi9tPtmeXHmH+js4qjYL2BElzq+d0ceyJCDZ3dcX9X8zfzuMQiZ0kv8AswcusKnF4/iXX7EbljHIDPiXbj0Etl/t6r2aHXLPvAo6oxTIggKKv1kQtZ9TKv4q/vbzaGjzGFVA8TeMjmdYWkXLuSDzwZ80Hrc3oMj527xBZYYlXf6DHfkGUcK/oHQwkCFbN+FlUxzpuH2k4zZDJyipbmk9KIxZWhmX/zCvqmheFa3lEMDZtdylbVz6vidbbdd5pUDOK6D4G0YXKf4q/obxnOka+aaA4m8YPYbR+cS+M2TRAoaB2wv5Gv5NGFcGYALL1kWllPv/myW+qd0r/pC9/7681Z0wFydmNO0foLVkQXCzrNP+B17eR02J6JxJ2Wu7ziwFcloBxd8wukfxV/E3jOdM18g3BRR/w+gxEHLO2ycxQC0/MucQeGvnHxr3UEUw/9Ds9YWz12O5cjijGCiLHgJC3urqvdXVSxUIXqBh6ZL/C//GWmvqVEC+tJwlB06paGRme5zlMDpA15ACOamA4m8Y3aL4q/gbxnOma+SbAoq/YfQYlDpr55G4/AF/qvZCH2+tF+wyCgL+NUQJfpKK8A/vtf3De22UaMiq/4tAVGywldsIqa61Qf6Dn8IB4FubG8Bny+SVEcYBklkcRgfoGlIgJxVQ/A2jWxR/FX/DeM50jXxTQPE3uz3GsDSyFKZvOGD5Ny7b14dcO/4tlv/rEyUHgp9kPrzReuWN1iuhTOEeywLm0mQx80qN9GRX/wwLm18Rc239Cse/CcnLIfB7drtZZ5cCaSmg+JuWbEM+SPFX8XfID4t2HHMKKP5mq8ttQQZXQoFhCBYMA/+3tNJze3GEfeAdP3Mt1ippBlQRc/P3lNUddZm/9kLZupm+PvcKcc7bJ+FfCju4LODACPZvwVrDAeb7FYHZPmlFA3nQqgKRvf7SmfNCAcXfbHWTDYuKv0WKv9l60HTePFZA8TdbnUf8JT+BKg2TV0YwQEFawJCv58wiDEKyJYDf2etgRsu/DB6LJs9mcsKLlFpwI1dvdl692UndBpsFkVAFGBwOkppnrvUo3q8FERCxvz5pRQO3s+jwhUWHL0DW0Utn/XaiF9L/pcDoK6D4m60+UPwlI03xN1tPmM6b/woo/marD5k8gpHHGJ0Tl++Gfy35su5mES6IFhK7+5F1IHB//Bsd+RYSMNpRcPAv/i9etqN1u8JN2fgLFxeX74J/7RA+/rlima0u0XmlQI4poPibrQ5R/FX8zdazpfPeKQoo/marJ0G5S9/3XPq+h+IJ9y+tIzEWSAwo2M92IFThArNeOGON5d//v70zfo3jOtf/33ApWK4poWBEKVwIlFsIhBsakoJrAqEpbklwoQTS3IAhl/xQuPeWL863pAlNQ+vUJDUE5xKbkBBDyQ82hAbyvfHNtd1aVu8iWyvbsr02im1ZUteOLFmWlP2y5zP76t2Z2dVqtTOzcp5BjGdnzpxz5pnZx88+8573IDYJm/3RhyM/+nCkYZtmrn+5EEuhufvouNe/5v8SsOzTobEnqX+3Prsf/fvo28ceffsYgRwEMkv/ZvU4qt6+RED8m9VtEf+Kf7N6tlTvvYKA+De7O1lXpqhUjM5v/nx/FAawre7tehfYsoghgUknhv7FYEX/Ijxzjn9AmaJ/MbKjWTyePzj4/MH6tB1PvlGf+Y0QZrf++vdf/vr3oxmRo2Ih/mHzzjfRvz4LBPVL/2b3OKrmPkRA/JvdTRH/in+ze7pU872AgPg3q7uIlCNKgbQJ9z391uDONwZ3vrH5B7/Z/IPf+Dhfr3/N/2VoHKd4/Yuazi3+F4C8ke3nQjb/t6X+DSPioojgnW9u3vnmwJNv+ETGNoWdskBk9Syq3n5FQPyb1Z0R/0b+g/g3q0dM9W54BMS/2d3Cuv9gmc8e+O1H9z39FmoxyvMQcp4lwwYQknVFHGSy938xXtG/jGk22zS7y6BmjGzGv0X+b5jFmQFvqf5vFObBZYYwD+zvzTvftIngvvPrwy+e+vzFU5/bhUgFZ30rVX//ICD+ze5eiH/Da0bxb3aPmGre4AiIf3t/Axsv8ev8a5l3vvPrw9/42T7079d2vP61Ha8jD5O2qelfn7kR/5e0YehfLxt7fw2JGrGbadrP4mzxDwh5Oh9FnoUwD6+CmRfjvqffIg+cz4LG+Lpc0hknrk07hEBBCIh/ew+8+Ff82/unSjXeiwiIf3t/Vxv8W68Z/YvQ2/LTP6IWozVzXriAWa+FNz/yEvoXzxTDlHqIpvDJczP2TFeEPCPWiN5tyuW27RU4l/hltnn/RmgHXjbXsvXZ/Un9S6KM3t8M1SgE+hgB8W/vb474V/zb+6dKNd6LCIh/e39X4d+l5eWl5cj/Nf1LMIPPGYbm9Zkf2FMfIBcEMpnLI/37yz/d/8s/oX+f+vj8Ux+fJywhU/3rUxgzYo3o3SiXWxj/Vg9V/t6vBr73K+//sidah2sxLc+53v+V/u39g6ga+x4B8W/vb5H4t4l5Ay/HvBTxb+8fO9W4AREQ/2Z30+q2KbMUM2CsHv8QpuGxmAELm/2HB//tHx78Ny8e6/6vi5lF/2K8MgscWdAIS1jM7iJqNSITsJtJwJaqf/F5uQS/TtG/IXB4cNcB9C+zYEj/ZnkPVXefIiD+ze7GiH/rk4qKf7N7wlTzRkdA/JvVHWRAF/EP5C277+m3MEC9/k06v4hHS5DGKVH8b/B/EaF+FFxW1xDqTWZ+QIw3+b+PvQrPeuXLdgr/hsRpg88fZBydD+TI9EJUuSHA5AD2kQ12+jXvMKL14uJS8i+85KBArM7Yx1hb+ggC4t+sngTxr/g3q2dr3fWmkqNnXrbFv+tGepUKxL+rANTF4Ub82UrYLIrV8v+SM4H0ZpCUV8EIxlT9i/+Lmt7+zvHt7xzHX+6ik52fQogFdrPP/Iv+JZZj4LFXk/5v00X5+IddB3w6N+nfzu9FdyU9sbah1IW7C7G/+fk79nd7bi75Z0fn5+/4c+tKOUjjVKLv7iruybPEv72/reLflP9UxL+9f9A6rVH82ylSuZcT//Ye8iT/ErGw9dlo/gvv/yapij2mf8mZgGBE/xJNwVA0S57b+8to1EgKY5/5wfu/RHRs2fay178oX9bsb4o/23WACAp+FuScyKJxWff4v00GgvNtUammW2dnv7C/mzdv2d9MYpm6Mc1f4ki0oxoWarg9N0dDWMZSwa2eNvFvK2S63y/+Ff92//T06Ezxb4+AzLYa8W+2+JL/lxFrg88fRMxG/m/4SY7aZW3Ob5QzLMT/MmUyghH9iwlLnYjHhaXlBun3/nIIMUZu3x8CMAZDAC85HKKI5ob/yyV4/o3iH3wsc0P/MprO69/srqL3uPRZjXGTIWheRCi+LTq3GhYk69SN6atXr9nfBMuVysSVSqVy2f4uXbzQ/o+SE+FEapu6MU1zUsHtHxPxb3t81ntU/Cv+Xe8z1Nn54t/OcOqvUuLfbO+HN0+/9cK76F+yAEezwLm0Cahg0obVh8aFmXu2Prt/67P7vf5NZkFbWFrO4jJQo/6/EAQ4+peORRHNDf3r5Tzbkf8b9K/lsqCemIWdaRaLLPApvM4mzm02edG81bDg26JMUano2fHx8XPnzp87d35s7OzY2NlyedT+RtKWklv8cTurXB4dD8vExAQSG6NZLnCtxSL+bQFMj3aLf8W/PXqUUqoR/6aAsqF2iX+zvV3iX/Fvdk+Y+Dc7bPOpWfybLc4MXnjig+EnPhj+x38/xMs0//4Nekp9/0Yxfubzg501/gMvr2zwQnaXwRBqmqMDdIkotMh/ePw1bBPcXu9CeP6l8ODzB3mPlxxCovdvHd5HmNcPCOaX/myIJ6tWq5PXJyevT/JGDbfBmwzmHpTcMtxiGWosHG98qv/rz6BODI2JKxX5D53cSvFvJyh1X0b8K/7t/ulpfab4tzU2G+mI+DeLu1UfecyfT15z/+4PUY5+/IUXjGwTfFZ//7Zjz6Yde9rrX0vemMVlUCdDPHzmdd6/sTb922o6UR9LR+FvvfAuQ0gY00F8G3BJ/656Hz3zEt2F5kVvRrL3SoX3YGhelGnJLUkl61VtJ9te+VIxb+Fo9+rVawzEiOLPwljkVS/tK1hA/JvFTRf/1jNP8if+7e0TJv7tLZ7F1ib+zQp/8o+QVhyX9ju/PsyYBfQvQ3KT/q/FnxGm5vUvtinjLxCkzx05/dyR01fvLGV1GbUa+pch1Pi/kf4NaSSJqBt4/LWIZxPhdKn8Swqhnxwu/+RwGf2L8pX+XfU+8lx55Ut4GYMgkJ/l8qjXvOtXu1i9JbdQP5oXlY3LjONcrVbxoxV51v6Gin/b49P9UfFvG/0r/u36wRL/dg1dH54o/s3qpiDlyAK8Z3hiz/DEA7/9iJgBhG1S/zYR1mOv4v9GU7WHgb9J/YuEzFT/Wucf+O1HfvwxKYGI6Bh4/LXoPVsL/cu14P9++xfvo6Yxr7HIG455VrfjHqjXOw+oS5QvQyoIPDDZ24mHOzQ09Je/nvrLX09R2G+zB+FcCku5PIrOpSE/5hjNS2ewfefn70j5dvLIiX87QambMuJf/9+J+LebZ6j5HPFvMx73wifxbxZ3sf7+zVuZZEl/eN9RhhFbznJLWx4lSQjiEcO0nn8yTO3epH93f3j/7g/xfxm8m6n+5RLQv9jNPv86+reN/4si5nIYS03hb//ifWrDFucnAussbkb/1wmx+jUmQ0S4NsePS6mDzGRIMZ4vyreN1evl7YkTx0+cOG4aOfbRAntLYbHABnQuIRaoXYIuCMBgxPOK7av86x08eeLfDkBacxHxbz34Qfzb4YPjmddzrt+uM7L4t0NAN04x8W8e94oUNo++fYz4AYuZjdmmPv534LFXsYmxjDFeGfkWzT/03tD294Zyi/9FbtM0ypc14Rmp8Q9N/Otime//5Z985p17SfkmmTS2B2EbX7vUOZ5kCXJAUc7P3/EpdRChmLDo01JYTNImLd2kyI0V9h+pjZotsME7vGhe+hYF+XIVDbXuLzyP79jGbEP8m8d9E//6sSTiX/FvHt+6jdCG+DePu0QWnh99OIJ/ap5pTDaif1dk449f3/Lj173+5XSm7SGnhCUvz+4yiM9l/k2aRvniZVv8QzL+d+VCmsfyfefXh8n8QGaJjaJ/vaBju4lGExp2aXHRC8OYmEU5ImnRkqwxdlnjrrK2XOnJlA6lsKQ6v600r3nBrQpQp9e/V69eoyfVsNBb7/lygbZGyANRErqaloCA+DePB0H86/Wv+DdmKYh/8/gS9mUb4t88botlgUA/EtJASICXjV4wDjTifxlshvPLmuBZIh9wNjK9BjqP0Uz/cbFT9S+X4IU8Yc7EcqDlv/vKEdR0I/NDpt3vtPKkRovkbbOwNX23cHfBaNTM2dtzc0kyrYbFi1mTtNi4UWZ0lC1rNwlQLFc6mtTifEulUlL5Wkivt3RN8w4NDbWSvVa+FBZaGQvZ2S9dvECgcasoCOCdnHcAACAASURBVC4K5T47+4WXxgAVKeKAp0e79hVexL953Hzxr/hX/Cv+TXKN+DeJSe/3YHG+8FkF6YoM5Cc5+tfLRvbU197/DZG/pA0jeBZBSn7Lxd53eaVGOu+zoHn9uzVMjxQzsmNCvh7mvPPNzTvfxDh+8PcfI96xZQr3f5vM3KDOvFeLjjNhm3RmTcxO3ZievD6JmG2StEHMIh6JWDBJ67OUrToVUMktSc1r0hV5y8dVNa8v4GugftdgCd1dLo/ST3rOhSTHwl29eq1VmHCTFv7K50UT/64QTXZb4l/xr/gXZ0b863lG/OvRyGobhfWH8hSTxiMDoaRW+tf8X8xiIh8Iv6USP3gsq367ejGakd4EI6/q/3Jp+L+W+eHbv3j/4X1HmzM/uGby2ow0r/N24QXUrhe5qFoTtrifKL5UMdtKxnrfFl91ZGSklFgQnqlrr0+T26lKtpXPGytMsdjOWBPWJd9lu5CRkREucCyYxefOnfcC2VvG1bB4Fq59hRfxbx43X/wr/hX/4kgE+m3KTpnHN7Bf2xD/5ndnDl25xbgv9GM0Cu6xV+tD3ba9vGXby942Nf+3lf4lLUNu5imxClH/gxmNCxzzf7kEfyE+8wMX/ujbxwhbnp1fnJ1f9IkysrsZ/BcYk72oMK924QgvcttM0p6k1FLzYprRNhCVfIwJzHV+RMNSyfrjH7roDBdlACCNgcinTGMQHV4EPvuXy8vZ3fc+r1n8m98NEv+Kf+E18a/4F94R/+bBv8iuY9PzzHiGmeuzQCT1b6r/S/gtIpScavT+y+wvglgFxq3Rf/RvbPybV75clB95wYnb3xsimoIA2+z7Xm/BK9/5+Tt8/wldIFYBMxelhmozeVtKLKZnYxtdyMYOTzFJ611av+3rsdxmvoAXyL5wLBzYnxIr1vnH4eFhMPP6lzeQ6F98diLSpH/rD6iW7BAQ/2JTiH87p7BYSfFvdl/PAmuW/s0P/Atzi8S9ImOhJD8KLqaCUY7e//X6l+QJ+ZintVqNQGOv35v0b7OF3aSCXRQz/X/ig+F8Oh9pXjJyhVAHDN9qtRr5vCEy12vekltM28aoMKOPXnj67ZhujX2MqdcO+2b1J2ujBr/fCttGm1YArVSK4oW98wvmuO04v3n+AMrve76WlsS/a0FrfWXFv+LfNszl2c1veypMZdtYgTZN2CGrv9W5fr8Vtg2rJ7kh/l0TSYh/1wTXugrP3V0maLfVKLiVmY9DOAT6F4OVX+6ciAhFQjJtWqb+LxKbIdQkXWMYXhv9i5CPJrhzI98IH7Y5j7OY8w3N691epBaGI4bvxMQE0anl8mi5PFoKC8SRJJTUPZ6JYlRF+TYFvJNAYV9Dqz2p3UjutHZ9na22Y6fbubH99tHXYzttAxjLAdKxsbMMjcNbB3b/zs2c36+y+Vur1cS/66LUNZ0s/hX/eo4zIk7yWnKP0Vz7Davf19BqO1aVnRvbbx99PbbTNsS/a2IDCot/uwCti1PqMxItLS/z3p8BbIwf83MhIxtNBXv96zOfoX9zyHzmr9NSCD135LTXvxbFHOt8ff66ENocG3nB4DdqQ6X6VrrYTgpeS7zrw3t57c4r+HPnzhOdWgrLqsrXE1N7Dkr1B4yhbGPVSqykn6LYn7WmLvna2mx3Ub+5DaVSaayRJq2eKW1iAs2L28uNiPLvfOVzPviHXPzr0chuW/z7PiOPxb8dcrQRpVFtF/xolXSy0UX94t91Uob4d50Aru30Q2OTh8Ym/Si4LT/945af/jGySh95afMjLyEkt2x72Y8cw//l9zv6t5E8N5rrc239WHvp6t3l6t3l546cfu7IadJQ4P8ib63PPvJh4PHXBh5/jQLod8KHX/issrC0vLDU/ainVM27tLhoeXj9kDYsSOxINJrlzF1V+cKVrcjLmLEVpXZdYNUTW3XJONTX0Kpwm/1Wjy+TrBMAy8HzJYDaghww3KM4B+X8bfGNE/+2ACab3eLf7e8cF/8aqXlG85TXar+d2GrDKvE1tCrcZr/V48sk6xT/rpMnxL/rBHBtpzOKjCgCJK35p5YFwrSk17+M3CX+gdO9/l1bJ9Zcui6x5+7W/9C/hJFF/nVDv9PtpP4lzNnP2fyH8lQUtrG83Mnr71ZqF22Ft8i79ZmZmWQCh2R4L6xh65Jb2OlJx7Y9+6TSk5VsJYd9gfbKOrV+OuAP+S4lK7dRcBzi0ty11jfbXK9VaK34pjkRG51gEn5nmOHr3d6eGP21e3ER/+Z6V8W/DD4W/4p/c/3i9Wtj4t/87sxirXZpevbS9KxXkchDrFIkpMU/NPmnv/zT/b/8E/4vk6cxIC2H3hP/aynkX/is4vWvZTH2ypcL8eP3bOTFEx8M/3niloUtxyKXm6Qu49aWlyMl5Qaw4S0mTd5K5TJaDJ+3HHxJH+pQaizsZE0xXzimCr3uM1VoGyYPW1GqP90Xjsnk2KHU+m2n30itn0tgzUVzgR6Z1Nhn3w1fs29xaGiIOqmNdHHVsPBzZOkrnNKstpZF/LsWtNZXVvyLcyL+NS7zBOeJzwr4+DO/02+nViL+Xd+XNaezxb85AU0zvPdPGQX3w99t+uHv4vqX1MDBYCXYAP+XJBI9DKHtBAJU8O6j47uPjnv9S/xyLHnx5h/8ZvMPfsMhJvtAuT/18fmnPj5/Ya4p52+T5nUTUpi9m1S7bUxeL2xLYfF7vAYcGzuLNewNYgrH9K8nO8+Snvh8mVVJs82JyUO2p5OmrTDXXg6/ALhAIkD8NEgWB93meu26bLQIewCKXxvcDix4G9jWyUOlMuLfXJ8B8a/4N2Y7GMGxYQRq+22P+DfX72oujYl/c4E5NBK8znosAal7k6PgYiEEPn8CwQboX+zjHPVvvc/8MW8F+hdhi8kb07++5yh3P2dd9W5UG+mvUEymdmMxvDb9WmxOivHxcW9lIsdKjYWPqD+KodTQgLG1179U4PWg6T7jQWPG5IYVTpKpZ8/Yicma2xT25yZPNNuBa+eq/fRrk1PTk1PT7BkfH2+l930HYq3QBPWDJEPdzPmV+Ru+7h2txL8dwdSTQuJfjBfxr+fQVDns6S9W2H+MMePQ0JD4tydf1dwqEf/mBvVKQ8m51CyKAAnctA75c73+xUVF/65UmssWk84RzDv4/MHB5w+a/2thG7HMD4Q5M+QP+Vyr1bzmbW/vXrp4AX2aVLsxzVsqlWwW3qTjieLzIrpSueyVbysl6PnOtj0/xkgw9tFOYcMfjYnlWMkYL//lr6f8ucnC7CmFpVweRZkSk1sNiw8XAYdz585TPllbm7Y4hdtBPdQfDXVTeofaGhbx7xrA6lVR8a/4l3d0SeLzezwJin979e3rq3rEvznfjrr1iXQljBd5eN/Tb9339FvpWSB27Nm0Yw9mK8Yr/i8JGXIbWYRX26R/dx0Y3HWAQXqI369/vz6LcyxzhY/8jaa9WF5G81bDEmUmC1IqOQnbyMhIKbGgVVmXGwlnx8bOjo+PUwO6DPXHNmuOjo+Pc5ZX0N7zjZEgH9to3vYBD/7ELmr2p7TZBiSu69LFC5aH4ebNW6BNfAJog0O5POqvulU/rdFYE9ZKLPKhkzGNNS0BAfFvzg+C+PfWl+LfQGk2PtgTn9e8RnydbJTCIv7N+fu8zubEv+sEsJvTfRQaXmpyFJxZwAQYYLZ6/dvwf4kl6KYbHZ+z0gT6l/y/NvPxwOOvpepfZq4jZgOxj/EyO/uFD+DFqUzau6WweKlr9i6FvclrshfN26R8wyRvsVao3Ku/VTmuPTPa0fZk6o9ai3au7WHDF04la4pxLTAvOExen0STzs/fmZ+/gzPLHpABulKpFGvRPvqmQcmmdANJr6/l/Na6XcS/3SK3jvPEv+JfY7rYeza/35Og+HcdX7j+PVX8W8i9qStK5sJAHsZiaU381mMJQhZdtCRi2fu/Fpmb9WV4/7dJ/4ZBeub8Rj13MRuMfCPyjPQX1yYuo6GS4QcxtYvg9Wo30rlB0rYyeScmJiiWbKUUluHhYU9zyW1PfG2iFHwxqyQpZn0xf7RNzb6Y1ZzcQJmifGOyNNKkYTwh28Q/ABqQxvSv7ydtmfJlegsT15PXJy3P2fz8HRvzJud3rV9D8e9aEetJefHvBQssgz6SzMuecnlU/JtkXs+P4t+efCcLqUT8Wwjs9UaZwI2BYQwSs7FkTfo3CEwMYoRn7uPfViAi/4PPXOy7apG/hDNzUUT+YhyTfCA2dA36YO2pFkFXqVz2Ohfjoo3Jy4gvz+mlsCDlWKfSmVd/J04ct9/7MX+AYrEC7eMfkoXpgDXhm072zY76ergQ/oviksEEWbpwdyEaWxiicTvUv75pXz8/UyauVIidwEf2+jq3IJyVB/Fe2RL/FnYnxb/lEDrm1+JfT4Jsi38L+4pm37D4N3uMEy2QSwwzlJSMTI+GbCQK2HQlH/0saj7/WcP/TbSRzQ70L5Nx+DF75v/6nMXIZOZ8I+UFkhaStfRjyLfI2A1aFymH2pq6MU16AT76F3ecwunUWS6PIglLYWmjdmPUFhO5SRLscM+qktbINFmhl7d+O1aSS+MyI2UaQIslYUCT+gwb6NY2/i8NpSjfRv3EEUfK17IzK9XvOr5r4t91gNftqeJfr3PFvxCf51y/Lf7t9nu2Ac4T/xZ2k/yMwhi7beaCi/RvmAUDyZxD/G/D16u/LWT+C/QvySgGnnxj4Mk30Ok2bTP6l9BgopWJ/D1x8e8nLv790vnR+t/FCxjBaDGELfKtGhZMTFtzCOWb1LwxwRtjq9SPFnjQhuaSlm6ycHJPrLlkAb/HuhE7K/Xj8PBwKSzlYNrwnxYAgg/i1IcifNmQqB36vyhfWknWrziHWgaL+DcDUDurUvwr/k2l2tSd4t/OvlUbrJT4t7AbJv4V/6ZSbepO8W9hX9QsGxb/ZoluB3X7GX0IMuMnvL1/i37g73xz8843+eGP/5DD/Ju8vcGF4DcsoW9tRotEo6VDah6GlpAts/L5dOXzaXuxxk9mHAbeC/HzmTV7ODp1I0oW7t/dxTyHVcdTxMwEe0uWynTtd7Z6gWb7vcNAVXaoVc3+lGRhswUwzcEBJL3zEH8t5kZegCqFcX6oKjb+ohQWDqU6Gw0/qoPHWkU6Q0D82xlOmZUS/4p/xb+Zfb36vWLxbwF3iPgHGj40NnlobJJBupGudHNxrqjgMKKXAkR0jdxcGLm50Nv4s1jQEpJqPuRwqd5eqN5eeObQyWcOnWQwNJknbdr5KGwuMfKYnOuIr2pYbs/NUadfo9HQvBRG4sWypJfCsmpgmReent1iCrSV2KT+Nq0k60zuibXlC9DuqjKcDiD2x8bOth/+60PNFu4uJPFE0vJijTrtMkG1HN7s0QovRanElLX0b63Xi/i314h2UJ/41zMv20m+EP+Kfzv4Mm3sIuLfAu5fQ0fU47r8XBgM2LUZfVbE77aXEZuDwVdFLHPi+nsf07xLi4vondtzc16NMm8j0ttnnozr35/+cctP/8gADYZWI/D9hBcLdxfacy4epWXnKYWllRqNadjYx5gITf1IzbTinWVrl7O8gGVPalt+Z/KU1A4kd3rmtUEW7dze5WWP8OzsF/43hA37tsTzdmlsoHxxllOVr6bUrGWziH+zwbVtreJf8W+Sc/0e8W/bL9C9c1D8W+C9rOtffFVCGtC/Ngojinx45KXNj7zkxzUQV0D6CPzfMLNylxfCfwameW/PzVXDMnUjCle4NnH52sTlM5XJM5VJ9K/1cOCxV1f0b8iTyaFo5PF7Q9vfG0Kne3UWU9b4ktiOpnnL5dFSWCy2oZX+9Roz5qj6Q0l2s4guNC8akG2vgq0Dvga2ff0me/1Of4oV8GOd/c6kDI8NgsCiAUkfmsI2d5CXmTMzMx5V6hkbOzs2dtZfmuWz9zEV/Ogxz3dpebkhF2paeo6A+LfnkHZeofi3/ivZM4X4txQWWFL82/l3aYOWFP8WfuPqLBzltdn94f27P9z67P6tz+4feOxV7//6LDyM6/X6dz3XgJ7CEPCmYaVyme8/yhT9i/XsRx7btPM41D5PPHmCpm7enrp5O6bOeLeG7Erl3DaqMxbM6zVmm+2YukTtIgn92qvgVMXtFatvrpXs9WrXl/fbvm90wAvSalhiw3+Trj3qmMJXr17D86Ue7iM4s+aSbbpSxnajfHkSvL5ez9Olc9sjIP5tj08OR8W/58+dOw/vlMKSSnyesFqRoC8T2/YcZ7+7PfOyLf4V/+bwnbcmxL8GRZEbBAmQhQf9u2nHHu//RtthFBzForncazUfzbama4g0VBgohXri3be3Ys+dO4+SIoEO0ttHaAx871cD3/tVvXsuQpliiHofRLGekLKkwPR7Yozs2bYUFogVkjXdx5W2skdjDO4/+qb9/lW1ue9nzIBGmdKlFEG6uMj98mv/28Wc35mZmbr+9QvTNblJmzg4eX2SXzycGzFveB5oZU2Pkwp3gYD4twvQen+K+HdVzZukPL/H89rQ0JD419Mv/4NGa3dA/Nv7b/IaaxT/rhGw3hev+w8ECRDYwFTzdTm57eUt2162AIMt214muwJhEmQ0X//4N6+hUENIsEsXLyAMiX9A/5InPjbyLZp2KKSjJEMF+pceVsPCl9+s3lJYVuVc5KQXmDGe9YegXWrm/RVq1+tK030+jzsmKQKZ02PV8rF907Gj/v8GX5v/j2FkZIQeerfXC9IoCAFBWqtFv1fIKhl2oli988vpUzemuUB+0BC7zaFqWPhRMjv7BTU0NRQCHmpackFA/JsLzO0aEf96gopvx5LkxmguVjr2i178K/5t983rg2Pi3z64CbXatZsL124uEF2L/t28802vf1HB6F80Ju5qD/Svm6IRH5AvrXmIt6s3bldv4JBEmddDqO+mh17c9NCLdGzg8deI/EWb+5FvyGfUJbK0fWxDzEKNhfR6wkVLsqZmmywZRYnaxXSOqT8+UgCBbH1Ldi8pZvlvILk/tbcxzWtv/8bHx+kAgDeFHwR5GwtCaK9/OZ11tVo1hcs9nZ39ApkcF7yNHO2K8y2ECMS/hcAeb1T864nVi9xURqOw+Nf7D+Lf+JdqI3wW//bFXZq7uzx3d5nsYiQ5+8bP9qF/CTBAbDIKjgKk4l1YWl5YWl7PNUSqKggufECE0uzsF9WwsJMJ5AnvJRiZLkWdfPy1+55+676n3yLzA8P5To1PnxqfRvmWwgJjeqq17RjntqLdpJbEZLBQZa8oEbkIQC7KrFLsUe/8Jvvmu2T9TGre1GLJfoID/aSTk9cnQZheeRM2pnxrbuEQrj2nwMKxNYea6kxoam79l5pA08Gb86b4N2fA05sT/3oWS3Kc0V+S18S/Meblo/g3/ZvWZ3vFv31xQ4jhxdI1/YvMjJzfYLayB4O4t7NgJL1FS4TGNxm5vZWxedteGdj2ytf+effX/nk3+nfTjj0cIkACIX/yzJWTZ66c/t+/nv7fvxqBJjfasK0vDPOaz1suj8a0JNFU/Az3itLTE1q4PqdGCIaFu0th8W357VZK3Mr4/qe+AEzt58zMjOVBRsy20bz+GTXRWp9eE0mbtvbF2PaVaLtPEBD/9sWNEP8anbXaEP/ypHpiFf/2xbd3HZ0Q/64DvN6dyhcJ/WtZ0HB70b9ebJJ+lxiDRhaI3nWlEWcabMF6bBwT3TdlPgv6N7KkH3t14LFXN+3YgzXM2DzEMurSGwvGrcmdyT0UNkXZ5J8G9YqHWw0Lgnd+/o53PNlG/6KLOaVSueyVL8xufUtmbPB989vWQ+tkLKTXfN6Y1UuX6jc9hB90rU8jLmYMJInKGtu9fCBUV2YIiH8zg3YtFYt/k7xm7FYKi/g3+UCJf5OYbKw94t8+ul/oX2Jsv/nz/UT7RgZr8H/ZRv+iNAlLyPQakNhR5ocwvUUU8xsyPyDSv/GzfdjW9Cryf0unT5ZOe3sUSl3VUfUv2crlUT+ALal5veC13+PsRBQTBeEzrvnkwsloXy+ErcOpffaWCIL60sULPgDDm9ErmtfJ3kxvnCrvfwTEv310j8S/pnntF734t48eUHWl1wiIf3uNaFf18UMS2xT/d3DXATKK+WDbgWC8on+ZY4JT5u6uKwS4dZfr/i8Sm15tDgnYkOGoYDr5zZ/v95kfiM0g/iGpf2MCExUZ07yedv0ANgIYUrVkPR6gERLglS+C1FJPIH5pLtaT2NC7VpbI0NBQKSxYItRsVq/XvE3a3Fm9XRu+re+UjmxIBMS/fXHbxL/i3754ENWJfBEQ/+aLd4vWpm8tTN9aYHYJhOTgrgNkVPAuMPo3GmkWJssgLGHk5gIVd50LODo9vEO3EVYMrsMVIbA3mvktyHA6syU4woPPH2TkGzYxF/LRqYmPTk387eT//O3k/8SUpmdbQnrxT20YW6Vy2WQvirKV5m3q+eIixdaU3sHr3DZq3feZ3ibzlt2em/OaN3o/poxiLR577Rb/9sUzIP4V//bFg6hO5IuA+DdfvFNaq3usZNfFYyWQYPD5g4woQ+2iggk2INI2NsewTYTc3VzIpnlt2Nv8/B1cVPQvzdE0nSELMJ38x38/hP4lhfF3Xzny3VeOcCLj37x4tARgXkWaf5pMCp5UlB5FNCb9n5+/Uw2L93xTE5t1qHmR7aWwNLm9IQA5NW+ZNG9NS8cIiH87hiqrguLfCxa2RXiZz5sTG1IBu/lbIf71aGh7YyEg/u2L+7X38Nm9h8+ifPF/bY0oRgVjtiYjDcz/7fBiPGehHNGYmKfEGMzMzDBvAvEPGLs0jQtMZ5C9333lCJG/FGNNFDCy0edtOHfuPFNsoFJRkTHObaJdFzmQvEDf/5s3b8HgOLOpyjfmRMc+el1smp1L8GkcfG+9PF9SLrHkHdKe1giIf1tjk+MR8a9nNP4bWOE18W+Oj6KayhMB8W+eaKe2VfcfCOMlxgDz9IHffkQUgReeg7sODO46gBVL/oenPj7/1Mfnr95ZSq06tjOKkG0EyUJwmLzEGECCBB5UKpcvnR+9dH4U/fvo28ceffsYTZOAjTXd4+ijbx+jz/TNRwH7CSnM4e0kVDZ2CXz0+t1fxdSNaZQ1irUUlpjC9XPKnThx/MSJ417z+sKcXi6P0nmUdSfBGHRSayGwKgLi31UhyrqA+HcuFraFpZC0eu1OiH8NCm1saATEv31x+9CYyMbt7w1tf2/oiQ+Gie1FUSI8fYwtkvOFzyovfFaprjb+LSKsxUWvFpFy2K9YsYhHGyqGf8rMb3QGtUs3MKbZs/2d4z/6cCT170xl8kxlEmVNizbtrqVriGUCS2Vez7mc6K+F+mOJzbyYZRvBm9wf21MKCyL60sULrZQvXUrtbV88VepE3yMg/u2LWyT+9Zo3ldHEv33xpKoTPUVA/NtTODutrO45UBZa+c+xqf8cm8LM/cnh8k8Ol5/4YBiFS0Qt+pc1ihhB2sb/jQireWK3pObF3DTN63ODEbrL/w2ocjpDqAOdwa1+9O1juL30h/Uz/335mf++fGl69tL0LFqVdSdqt+bSEEPNaF5ezXnPGnGKch8bO9tJzENsTnvEr0U7lEolU76IX0CLOt/2ZWCn91/lhEBAQPxbyIMg/q3nyuF/CNbJ22BHxb9JcLTn3kBA/FvwfSRjwx/KU38oR/oXF3X7O8fRuQhMJCfbkU38zvHt7xxHLF+YW/SX4ZUvgtFkLz4vmnds7KwJxlJY0IBmhrLTxz/QNJ6v79JDez9Bj9N5r38vzC1emGua6MGI1ffZb0f9D0rTxuOheath8Z4114JiLZVKsUuIpTSzS0tqXoQzmKCmUdazs1+syPbFRfrme6ttIdA1AuLfrqHrzYni3ySO4t8kJtpzTyIg/i3gtsK5rJld7cVTn7946nNkI07rw/uO+lwKFhT8wG8/QmlSDP17bHqe/A/Jn+rVsNjsD6tqXq8QS2Ghbxbh++jbx5Ide2jvJz54w+vfxgx1dcuFS66lLTHONdk7O/sFsQ2oUeYtZiha6rX4/rfatuTuXvOio/l9QIuMA1y4uwCqab3WPiGwLgTEv+uCr7uTxb9J3MS/SUy0555HQPxbwC1uyMC6JDw2PX9sep5QAcQsSjNV/yI80b8+3mBF/4Zoh/n5O7FMYAhGH9uw6rxnJ04cPxkmcEP/Irdp2rvACPMV/RtcafrGRWFtV+8uV+9G+jc1Q1tSueNZT16fRJPaJdhVlMKSNHxTZW8svAHt7DWvD/LFa7aAB3m+BXxJvhpNin8LuM/i3yTo4t8kJtpzzyMg/i3gFsO/i7XaYq126MqtQ1duRc5vEI9oTIIfHtr7CcEGJjPrkQZhgBximRNN/3rli+frZWMbzZvMgTA8PExQAfqXwAaEbar+9VHJ9JC+cTpREKlYR86DU+4o3+48ay9+S2HB5OVaCHO2dJc+gW+T5g2d4b8EuvelEpul3jztXB8C4t/14dfV2eJfD5v416Oh7a8UAuLfwm43kQ+YpAhGnF/074O//9iPf8P5jWIMgkz2MQb1ANsg2Xhln6p8W4nfEyEHWKpsRC362GT0rznUD+87ijx/eN9RvzMyi4NOp5/IfCS/+b+tPIdY/7FuO/F5UwMb+AVASC81z8zMILHba97Cngw1/JVBQPxb2K0W/4p/C3v41HB/ICD+ze8+YDt8GWzfxVotGVeAbETkPrzvaMwIfmjvJ5FAdrqSSq7eWULKYWjGhoSVSiWTt0mfl0Ox8IByeXR8fBy1iHRFp6N/6diOvZ/u2Psptu/D+45yiI+YxfSWbYtTDlZ1zTMvPSfkNqZ8y+XRVrJ9aGjI97kUlnJ51BxeM3kJbPAhvU2TazSGtCnIIb9vglpqICD+bSCR/b/iX4LtajXxb/ZPm1rYCAiIf3O9SxigPqMY8hBF6SWk5X9AUSI2I/3rYmzRv9W7yxiaDA8juLUUFlO+yQ2vH314AJVMXp+shgXS9LHJvhsWC0HnSoOLowAACmZJREFUvUPNKYh6r4IvTc/iVtNnlClBvqhXIhboP520NTtZ02cuFpN34koFBd0qsGElk0NILlHTIgQKRUD8myv84t+fHC6Lf3N95tRYHyMg/s315oh/xb+5PnBqrL8REP/md3+WlqPRxvwkJzAL58H/POcnPCnYn/hgmGl+2Ekx/0ufSi5Nz/KWyf9+5zd70nawN1fJ7DMWnjUzM2N5F8kNTwAczgMdoDNkYX/w9x/TEw5RjFd2bHOUU174rDJ18/bUzdv02U96lOo8lMKSOozCXrJhONDt2dkv2geWaTBFfg+9WmqLgPi3LTw9PSj+Ff/29IFSZRseAfFvPrewnmqnenuB6TKhoUj/NmbbfOKDYf+Oy3KrM827f0FHMSpBSp+4+PdrE5evTVzmlVQpLKsqX8Qy8tO/sGIQ89LiIm7J7qPju4+O8xqQphG5bDMX50N7P2En/fECH/1LYVszp2cyTo6e+3W5PBp7w2Yv2Xhx50dSKLCspmVDISD+zed2iX/rk9rZn/g3n8dOrfQ5AuLffG5QnX9Hbi74CYRwVJGN2Lve5LUZfWyArw32RYp6R/XPE7cIwCqFJVX5Dg0N2cySUbRWiPlCRTYZpkwxWavN3V2eu7vcNE4kqHWfDIjOPLzvKBtep1MMne6P/tP//fC5I6efO3IaAU6fWXtL2sYN+5CyaljoLTp9JaSseSSFTN6alr5HQPybzy0S/35i/6OIf/N55tRK/yMg/s3vHl2anv3WC+9+64V3B3cdGNx1gG3kLXv89PKDzx9ES7K2MIMHf/8xWhLhTIzBuXPnUY6tYh7Yb8Nz/Sw7aEkGRDRlXGwAg1eApYtCR7nTc1Px9JBoDfo8uPONwZ1vUODbv3j/2794H7N48843/2P/p/+x/1PvVrNtwygmrlRs3LB3eL3aTfa50WX9KwQ2BgLi3/zuk/hX/Jvf06aWNgIC4t887pIl/N17+Ozew2cZTPzAv77/wL++j2y87+m37nv6LcQjunjTD3/nle/mR17a/MhLW378+pYfv87E74RSnLj49xMX/06eGhuk6/3fUlhMXXrla3EOSw3nNIYF3cYFJgsP0vubP9//zZ/vp0uI3Cc+GEbCDzz5xsCTb+D8btqxZ9OOPejfrc/u3/rsfi58x95PPzo18dGpCd83YiF8ALKZvF7zWjZ02buxm6WPGxEB8W8ed038K/7N4zlTGxsNAfFvnndsmYjahaXlhaXl05dvnr58EwH74sGTLx48SaTtM4dOPnPo5Pb/82eM13f/q/Luf1VQkehHip08c+XkmStjZ/42duZvpnz9hh8wZuqyGhavfPF826Bgadu+rNXoEj3E/2X76MhV07Y79n5KD//l9aP/8vrRD/7fqP0xoefIyEjJLURBIMxD76qx7knztrk7OrShERD/5nn7xL+nT5ZOi3/zfObUVj8jIP7N8+7Uo9BqtYiF2cbcZM3sQQTkTk5NEwDAwLYzlUn780keSmmLub3j4+Mkk7ThbV5arinjeKNwvf9kb7g0PVvPOzE1PTk1PXGlwjg6mkaVs+076OW5ze+JNqeHPgy50WKeN0htCYFcERD/5gm3+LeJgSFo8W+ej6Da6isExL853446BRO4ihRF81ZZpq9Xp68jeycmJlCU0NOl86OXzo96XYm9601eC+/lRB9LQCsLdxdoek2OKoU50ev0augtbY2Pj0OmrH3fUrcp1t75lf7N+dFUc/kjIP7NGXPxb52Qxb85P3Zqrj8REP/md1++DHkVlpaXUZF4nXHPt2H7Xr16jZAABKZfo4gZKsZ2pXKZwknNi8qmRZO9a7pm4h+8ZmdAmul0pLr1pFK5TN98DyMVf/GCL0afcX5NoddFuiYHWtMdUuENi4D4N79bJ/41Fua/E/Fvfg+fWupLBMS/ud6WyEsN+i6pgqtuIQoitibYgHXsEJoUFek1r0/p0N2ltuozLdJl69hK8MbUdHLb+uwutOr77O3p7nqrs4TABkJA/JvrzWrFZXBQ1S1GVX7DaG6ywW52VPyb641UY0KgFwiIf3uBYsd1eP71EQVoYdamXtnwa0uJ4HfapA8W3kDN61e+/rLa99z643vog3m92PcdXulzI+lw3W5eXlZ6Bw++tu9VBMS/ud7Z9iwm/o3GOot/c30q1VhhCIh/C4OehpsYGQ0Y2KeuXhcXl+pzsK2ErPnt2In5aEZaiTVNV6O+hUvwAhwZ7tf1CGh3pfn0vODbrOaFQBoC4t80VHLcl+SylT3i3xxvhJoSAvkjIP7NH/N7qsUu1Ku83XvqCdDFrAMB8e86wNOpXb0rE//qwRECICD+1ZMgBISAECgGAfFvMbirVSEgBISA+FfPgBAQAkKgGATEv8XgrlaFgBAQAuJfPQNCQAgIgWIQEP8Wg7taFQJCQAiIf/UMCAEhIASKQUD8WwzualUICAEhIP7VMyAEhIAQKAYB8W8xuKtVISAEhID4V8+AEBACQqAYBMS/xeCuVoWAEBAC4l89A0JACAiBYhAQ/xaDu1oVAkJACIh/9QwIASEgBIpBQPxbDO5qVQgIASEg/tUzIASEgBAoBgHxbzG4q1UhIASEgPhXz4AQEAJCoBgExL/F4K5WhYAQEALiXz0DQkAICIFiEBD/FoO7WhUCQkAIiH/1DAgBISAEikFA/FsM7mpVCAgBISD+1TMgBISAECgGAfFvMbirVSEgBISA+FfPgBAQAkKgGATEv8XgrlaFgBAQAuJfPQNCQAgIgWIQEP8Wg7taFQJCQAiIf/UMCAEhIASKQUD8WwzualUICAEhIP7VMyAEhIAQKAYB8W8xuKtVISAEhID4V8+AEBACQqAYBMS/xeCuVoWAEBAC4l89A0JACAiBYhAQ/xaDu1oVAkJACIh/9QwIASEgBIpBQPxbDO5qVQgIASEg/tUzIASEgBAoBgHxbzG4q1UhIASEgPhXz4AQEAJCoBgExL/F4K5WhYAQEALiXz0DQkAICIFiEBD/FoO7WhUCQkAIiH/1DAgBISAEikFA/FsM7mpVCAgBISD+1TMgBISAECgGAfFvMbirVSEgBISA+FfPgBAQAkKgGATEv8XgrlaFgBAQAuJfPQNCQAgIgWIQEP8Wg7taFQJCQAiIf/UMCAEhIASKQUD8WwzualUICAEhIP7VMyAEhIAQKAYB8W8xuKtVISAEhID4V8+AEBACQqAYBMS/xeCuVoWAEBAC4l89A0JACAiBYhAQ/xaDu1oVAkJACIh/9QwIASEgBIpBQPxbDO5qVQgIASEg/tUzIASEgBAoBgHxbzG4q1UhIASEgPhXz4AQEAJCoBgExL/F4K5WhYAQEALiXz0DQkAICIFiEBD/FoO7WhUCQkAIiH/1DAgBISAEikFA/FsM7mpVCAgBISD+1TMgBISAECgGAfFvMbirVSEgBISA+FfPgBAQAkKgGATEv8XgrlaFgBAQAuJfPQNCQAgIgWIQEP8Wg7taFQJCQAiIf/UMCAEhIASKQUD8WwzualUICAEhIP7VMyAEhIAQKAYB8W8xuKtVISAEhID4V8+AEBACQqAYBP4/ZNqxDh7l7w0AAAAASUVORK5CYII=;" vertex="1" parent="1">
          <mxGeometry x="-573.9964080255681" y="248.99995561079538" width="469" height="704" as="geometry" />
        </mxCell>
        <mxCell id="e_rh_0O6W5ZMYadc6qjm-30" value="" style="endArrow=classic;html=1;rounded=0;" edge="1" parent="1">
          <mxGeometry width="50" height="50" relative="1" as="geometry">
            <mxPoint x="-384" y="402" as="sourcePoint" />
            <mxPoint x="-249" y="398" as="targetPoint" />
          </mxGeometry>
        </mxCell>
        <mxCell id="e_rh_0O6W5ZMYadc6qjm-31" value="" style="endArrow=classic;html=1;rounded=0;entryX=0.747;entryY=0.403;entryDx=0;entryDy=0;entryPerimeter=0;" edge="1" parent="1">
          <mxGeometry width="50" height="50" relative="1" as="geometry">
            <mxPoint x="-382" y="521" as="sourcePoint" />
            <mxPoint x="-260.1347958984379" y="521.2215263157896" as="targetPoint" />
          </mxGeometry>
        </mxCell>
        <mxCell id="e_rh_0O6W5ZMYadc6qjm-32" value="" style="endArrow=classic;html=1;rounded=0;entryX=0.06;entryY=0.341;entryDx=0;entryDy=0;entryPerimeter=0;" edge="1" parent="1">
          <mxGeometry width="50" height="50" relative="1" as="geometry">
            <mxPoint x="-429" y="465" as="sourcePoint" />
            <mxPoint x="-578.215795898438" y="471.1875263157897" as="targetPoint" />
          </mxGeometry>
        </mxCell>
        <mxCell id="e_rh_0O6W5ZMYadc6qjm-33" value="&lt;font size=&quot;1&quot; face=&quot;Times New Roman&quot;&gt;&lt;b style=&quot;font-size: 14px;&quot;&gt;Insulin Pumps&lt;/b&gt;&lt;/font&gt;" style="text;html=1;align=center;verticalAlign=middle;whiteSpace=wrap;rounded=0;" vertex="1" parent="1">
          <mxGeometry x="-260" y="501" width="108" height="45" as="geometry" />
        </mxCell>
        <mxCell id="e_rh_0O6W5ZMYadc6qjm-34" value="&lt;font style=&quot;font-size: 14px;&quot; face=&quot;Times New Roman&quot;&gt;&lt;b&gt;Pacemaker&lt;/b&gt;&lt;/font&gt;" style="text;html=1;align=center;verticalAlign=middle;whiteSpace=wrap;rounded=0;" vertex="1" parent="1">
          <mxGeometry x="-241" y="369" width="60" height="53" as="geometry" />
        </mxCell>
        <mxCell id="e_rh_0O6W5ZMYadc6qjm-35" value="&lt;b&gt;&lt;font style=&quot;font-size: 14px;&quot;&gt;Gastric Stimulator&amp;nbsp;&lt;/font&gt;&lt;/b&gt;" style="text;html=1;align=center;verticalAlign=middle;whiteSpace=wrap;rounded=0;" vertex="1" parent="1">
          <mxGeometry x="-660" y="459" width="60" height="30" as="geometry" />
        </mxCell>
        <mxCell id="e_rh_0O6W5ZMYadc6qjm-36" value="&lt;font size=&quot;1&quot; face=&quot;Times New Roman&quot;&gt;&lt;b style=&quot;font-size: 18px;&quot;&gt;WIRELESS MEDICAL DEVICES&lt;/b&gt;&lt;/font&gt;" style="text;html=1;align=center;verticalAlign=middle;whiteSpace=wrap;rounded=0;" vertex="1" parent="1">
          <mxGeometry x="-567" y="225" width="415" height="30" as="geometry" />
        </mxCell>
        <mxCell id="e_rh_0O6W5ZMYadc6qjm-38" value="" style="endArrow=classic;html=1;rounded=0;" edge="1" parent="1">
          <mxGeometry width="50" height="50" relative="1" as="geometry">
            <mxPoint x="-391" y="332" as="sourcePoint" />
            <mxPoint x="-246" y="332" as="targetPoint" />
          </mxGeometry>
        </mxCell>
        <mxCell id="e_rh_0O6W5ZMYadc6qjm-39" value="&lt;b&gt;&lt;font face=&quot;Times New Roman&quot; style=&quot;font-size: 14px;&quot;&gt;Hearing Aid&lt;/font&gt;&lt;/b&gt;" style="text;html=1;align=center;verticalAlign=middle;whiteSpace=wrap;rounded=0;" vertex="1" parent="1">
          <mxGeometry x="-260" y="318" width="116" height="30" as="geometry" />
        </mxCell>
        <mxCell id="e_rh_0O6W5ZMYadc6qjm-42" value="" style="shape=image;html=1;verticalAlign=top;verticalLabelPosition=bottom;labelBackgroundColor=#ffffff;imageAspect=0;aspect=fixed;image=https://cdn2.iconfinder.com/data/icons/business-and-education-1/512/140_smart_watch_smartwatch_watch_apple_android_technology_smart-128.png;rotation=-75;" vertex="1" parent="1">
          <mxGeometry x="-488" y="544" width="19" height="19" as="geometry" />
        </mxCell>
        <mxCell id="e_rh_0O6W5ZMYadc6qjm-46" value="" style="endArrow=classic;html=1;rounded=0;entryX=0.006;entryY=0.435;entryDx=0;entryDy=0;entryPerimeter=0;" edge="1" parent="1" target="e_rh_0O6W5ZMYadc6qjm-29">
          <mxGeometry width="50" height="50" relative="1" as="geometry">
            <mxPoint x="-483" y="554" as="sourcePoint" />
            <mxPoint x="-433" y="504" as="targetPoint" />
          </mxGeometry>
        </mxCell>
        <mxCell id="e_rh_0O6W5ZMYadc6qjm-47" value="&lt;b&gt;&lt;font face=&quot;Times New Roman&quot; style=&quot;font-size: 14px;&quot;&gt;Fitness Band&lt;/font&gt;&lt;/b&gt;" style="text;html=1;align=center;verticalAlign=middle;whiteSpace=wrap;rounded=0;" vertex="1" parent="1">
          <mxGeometry x="-644" y="546" width="60" height="30" as="geometry" />
        </mxCell>
      </root>
    </mxGraphModel>
  </diagram>
</mxfile>
